<svg width="100" height="62" viewBox="0 0 100 62" fill="none" xmlns="http://www.w3.org/2000/svg">
<path d="M71.0351 10.2883C75.0367 20.4591 79.0383 30.5898 83.0399 40.7872H73.196C74.1163 38.9865 75.0167 37.2324 75.9571 35.385H56.8694L59.7172 40.7739H49.8199C53.8215 30.5898 57.8232 20.4524 61.8714 10.2883H71.0351ZM71.2885 31.2901C69.6946 26.9217 68.1273 22.6199 66.4866 18.1315C64.4858 23.8071 62.5517 29.2626 60.5843 34.8048L71.2885 31.2901Z" fill="#EB1C24"/>
<path d="M0 38.8331V0.150931C0.30012 -0.0891655 0.626917 0.0308801 1.02041 0.0442188L2.80779 2.75197C2.92518 3.00132 2.96246 3.2809 2.9145 3.55229C2.9145 6.80026 2.9145 10.0416 2.9145 13.2895C2.86653 13.5762 2.90363 13.8707 3.02121 14.1365C3.81687 13.3108 4.69515 12.5688 5.64226 11.9223C11.3379 8.21416 19.3411 10.4017 22.6757 15.7638C24.8233 19.2319 25.3435 22.9601 24.95 26.9016C24.7167 30.1049 23.5839 33.1772 21.682 35.7652C20.6666 37.1002 19.3962 38.2204 17.9445 39.0607C16.4928 39.9011 14.8887 40.4448 13.2253 40.6605C8.87972 41.3503 4.4275 40.7833 0.393491 39.0265C0.253435 38.9731 0.153395 38.9131 0 38.8331ZM2.90116 36.7256C3.11126 36.9059 3.36774 37.0238 3.64146 37.0657C7.28159 38.24 11.203 38.2119 14.8259 36.9857C17.0578 36.2984 18.9576 34.8118 20.1614 32.8107C21.2814 31.0005 22.0148 28.9782 22.3155 26.8709C22.6162 24.7636 22.4777 22.6169 21.9088 20.5658C21.0151 17.3645 19.1543 14.7901 15.9864 13.4496C11.3712 11.4955 6.12245 13.1961 2.92784 17.6446L2.90116 36.7256Z" fill="black"/>
<path d="M52.9011 24.8942C52.9011 30.1029 51.5672 34.1312 48.3059 37.3725C47.0927 38.5762 45.6453 39.5181 44.0534 40.14C42.4615 40.7619 40.759 41.0505 39.0511 40.988C37.3432 40.9255 35.6662 40.5131 34.1241 39.7765C32.5819 39.0399 31.2073 37.9947 30.0853 36.7056C26.9774 33.2175 25.9036 29.0692 26.1237 24.5073C26.2067 20.9083 27.5148 17.4453 29.8319 14.6901C31.039 13.2067 32.5703 12.02 34.308 11.2212C36.0457 10.4224 37.9435 10.0328 39.8553 10.0824C41.7672 10.132 43.6422 10.6195 45.3362 11.5073C47.0301 12.3951 48.4978 13.6596 49.6264 15.2036C51.7454 17.9903 52.8954 21.3933 52.9011 24.8942ZM49.9266 25.6478C50 23.0893 49.3604 20.5607 48.0792 18.3449C44.1176 11.6089 35.7009 11.7956 31.6526 17.2044C28.0378 22.0264 28.1845 29.8228 32.0794 34.4113C32.9435 35.4601 34.0205 36.3135 35.2391 36.9149C36.4577 37.5163 37.7901 37.8521 39.1481 37.9C40.5062 37.948 41.859 37.7069 43.1169 37.1929C44.3749 36.6788 45.5093 35.9035 46.4452 34.9182C48.9595 32.3371 49.9066 29.1625 49.9266 25.6478Z" fill="black"/>
<path d="M98.2393 12.7026H88.4821V13.4162C88.4821 19.2586 88.4821 25.1009 88.4821 30.9433C88.4521 32.4407 88.5863 33.9369 88.8823 35.405C88.9704 35.9383 89.2217 36.4312 89.6015 36.8158C89.9813 37.2004 90.471 37.4578 91.0031 37.5526C93.4533 38.0552 95.9955 37.8587 98.3394 36.9857C98.8796 36.8123 99.4131 36.6122 100 36.4121V39.44C97.3402 40.6497 94.4159 41.1615 91.5033 40.9272C90.2559 40.8195 89.0449 40.4515 87.9485 39.8468C86.9481 39.349 86.1133 38.572 85.5451 37.6097C84.977 36.6474 84.6999 35.5411 84.7473 34.4246C84.7473 27.4819 84.7473 20.5391 84.7473 13.603V12.696H75.4169L78.3981 10.0749H84.7739V2.87203L87.295 0.0575686C87.6847 -0.0191895 88.0857 -0.0191895 88.4754 0.0575686V10.0616H98.2393V12.7026Z" fill="black"/>
</svg>
