<svg width="115" height="34" viewBox="0 0 115 34" fill="none" xmlns="http://www.w3.org/2000/svg">
<path d="M72.4068 9.62627L70.524 6.45792L67.1562 8.03948L65.2735 4.87114L61.9069 6.45401L60.0229 3.28566L56.6563 4.86983L54.7723 1.70149L51.4057 3.28175L49.5204 0.113403L46.1565 1.69497L39.0166 24.6309L47.6781 27.2451C47.9739 26.3154 48.5586 25.5042 49.3472 24.9297C50.1358 24.3552 51.0872 24.0473 52.0629 24.0507C54.5976 24.0507 56.6524 26.0808 56.6524 28.5855L56.6511 28.6768C56.672 29.0875 56.6237 29.5034 56.4973 29.9102L65.3061 32.5727L72.4068 9.62496" fill="#C4242B"/>
<path d="M2.23503 20.6921H4.09693C5.12436 20.6921 5.96143 19.8667 5.96143 18.8497V13.4505C5.96143 12.5548 5.31211 11.792 4.41898 11.6369C4.3126 11.6184 4.20488 11.6088 4.09693 11.6082L2.23243 11.6095L2.23503 20.6908V20.6921ZM1.0694 22.6178C0.842839 22.5815 0.636956 22.4648 0.489454 22.289C0.341951 22.1133 0.262704 21.8902 0.266226 21.6608V4.89988C0.266226 4.6352 0.366622 4.39008 0.550464 4.20884C0.663089 4.0979 0.8009 4.01588 0.952119 3.96979C1.10334 3.9237 1.26347 3.9149 1.41883 3.94416C1.89082 4.025 2.23243 4.42658 2.23243 4.90118V9.66804H4.09693C4.59726 9.66323 5.09361 9.75742 5.5574 9.94521C6.02119 10.133 6.44325 10.4107 6.7993 10.7622C7.15534 11.1138 7.43833 11.5323 7.63198 11.9937C7.82562 12.455 7.9261 12.9501 7.92763 13.4505L7.92632 18.8497C7.92632 20.9372 6.20785 22.6335 4.09562 22.6335H1.25193C1.19075 22.6351 1.12958 22.6303 1.0694 22.6191V22.6178ZM14.5981 11.5247C14.4921 11.5071 14.3848 11.4984 14.2774 11.4986C13.233 11.4986 12.4129 12.307 12.4129 13.3397V18.9632C12.413 19.2069 12.4615 19.4481 12.5556 19.6729C12.6496 19.8978 12.7873 20.1017 12.9607 20.2729C13.1342 20.4442 13.3398 20.5793 13.5658 20.6705C13.7918 20.7617 14.0337 20.8071 14.2774 20.8042C15.3048 20.8042 16.1406 19.9802 16.1419 18.9632L16.1406 13.3397C16.1406 12.4426 15.4912 11.6812 14.5981 11.5247ZM13.6033 22.6909C12.7218 22.5416 11.9216 22.0854 11.3442 21.403C10.7667 20.7205 10.4493 19.8558 10.448 18.9619V13.3384C10.448 12.324 10.8443 11.3735 11.5667 10.6603C12.2886 9.94809 13.2633 9.55099 14.2774 9.55591C14.7778 9.5511 15.2743 9.64533 15.7381 9.8332C16.202 10.0211 16.6241 10.2988 16.9802 10.6505C17.3362 11.0022 17.6192 11.4209 17.8128 11.8824C18.0064 12.3439 18.1067 12.8392 18.1081 13.3397L18.1068 18.9632C18.1068 19.9736 17.7052 20.9241 16.9763 21.6426C16.2573 22.3519 15.2874 22.7487 14.2774 22.7469C14.0514 22.7481 13.8259 22.7293 13.6033 22.6909ZM24.7759 11.5247C24.6704 11.5071 24.5635 11.4984 24.4565 11.4986C23.4108 11.4986 22.5946 12.307 22.5946 13.3397V18.9632C22.5946 19.2067 22.6429 19.4478 22.7367 19.6725C22.8305 19.8973 22.968 20.1012 23.1412 20.2724C23.3143 20.4436 23.5198 20.5788 23.7455 20.6701C23.9713 20.7614 24.213 20.807 24.4565 20.8042C24.9493 20.8042 25.4122 20.6138 25.7668 20.2696C26.1228 19.9202 26.3197 19.456 26.3197 18.9632V13.3384C26.3197 12.4426 25.6704 11.6825 24.7759 11.5247ZM23.7824 22.6909C22.9014 22.5412 22.1017 22.085 21.5243 21.4029C20.947 20.7209 20.6292 19.8568 20.6271 18.9632V13.3397C20.6271 11.2522 22.3443 9.55461 24.4565 9.55461C24.6781 9.55461 24.8998 9.57286 25.1162 9.61067C25.9997 9.75811 26.8026 10.2133 27.3827 10.8958C27.9628 11.5783 28.2827 12.444 28.2859 13.3397V18.9632C28.2859 19.9763 27.8843 20.9241 27.1554 21.6426C26.4364 22.3519 25.4665 22.7487 24.4565 22.7469C24.2296 22.7469 24.0027 22.7287 23.7824 22.6909ZM31.6081 22.7313C31.3823 22.6942 31.1774 22.5773 31.0305 22.4019C30.8836 22.2266 30.8045 22.0043 30.8075 21.7756V4.89988C30.8057 4.77094 30.83 4.64296 30.8788 4.52361C30.9276 4.40426 31.0001 4.296 31.0917 4.2053C31.1834 4.11461 31.2924 4.04334 31.4123 3.99578C31.5322 3.94822 31.6604 3.92534 31.7893 3.92851C31.9178 3.92714 32.0453 3.95123 32.1644 3.99942C32.2836 4.0476 32.392 4.11891 32.4834 4.20923C32.5748 4.29955 32.6474 4.40709 32.697 4.52563C32.7466 4.64417 32.7722 4.77137 32.7724 4.89988V14.8873L37.302 9.87666C37.4165 9.75506 37.5597 9.66414 37.7185 9.6122C37.8772 9.56027 38.0465 9.54898 38.2108 9.57938C38.392 9.61068 38.5628 9.69021 38.7049 9.80756C39.1078 10.1726 39.1352 10.7854 38.7727 11.174L35.3632 14.9291L38.9057 21.3205C38.9683 21.4286 39.0082 21.5482 39.0229 21.6722C39.0377 21.7961 39.0271 21.9218 38.9918 22.0415C38.9547 22.1655 38.8928 22.2806 38.8099 22.3799C38.7269 22.4792 38.6247 22.5606 38.5093 22.6191C38.3108 22.7288 38.0805 22.7666 37.8574 22.7261C37.7161 22.7037 37.5814 22.6505 37.4629 22.5703C37.3443 22.4901 37.2449 22.3848 37.1716 22.2619L33.985 16.4819L32.7724 17.8027V21.7756C32.7724 22.0389 32.6681 22.2841 32.479 22.4692C32.3655 22.5794 32.2271 22.6608 32.0755 22.7064C31.9239 22.752 31.7636 22.7605 31.6081 22.7313ZM74.9844 22.7208C74.4542 22.634 73.9499 22.4305 73.5079 22.1249C73.066 21.8194 72.6974 21.4195 72.4289 20.9541C72.3023 20.7283 72.2704 20.4615 72.3402 20.2122C72.373 20.0895 72.4298 19.9745 72.5072 19.8738C72.5846 19.7731 72.6812 19.6888 72.7914 19.6255C72.9869 19.516 73.2216 19.4769 73.4498 19.516C73.5911 19.5389 73.7257 19.5926 73.8439 19.6733C73.9622 19.754 74.0613 19.8596 74.1343 19.9828C74.3938 20.4196 74.798 20.6947 75.3013 20.7833C75.8489 20.8694 76.3483 20.7207 76.7564 20.3713C77.1345 20.0232 77.3327 19.5264 77.2831 19.0466C77.2718 18.7956 77.2011 18.5508 77.0769 18.3323C76.9527 18.1138 76.7785 17.9279 76.5686 17.7897L73.9205 15.9317C73.4907 15.6332 73.1326 15.2428 72.8721 14.7889C72.6116 14.335 72.4554 13.8288 72.4146 13.3071C72.3798 12.7824 72.4656 12.2568 72.6654 11.7704C72.8652 11.2841 73.1736 10.8499 73.5672 10.5012C73.9574 10.1447 74.4215 9.87879 74.9263 9.72237C75.4312 9.56596 75.9644 9.52292 76.4878 9.59633H76.4891C77.6052 9.79191 78.5165 10.4178 79.0316 11.3213C79.1575 11.5444 79.1903 11.8082 79.1228 12.0554C79.0898 12.179 79.0327 12.2949 78.9549 12.3965C78.877 12.4981 78.7799 12.5833 78.6691 12.6473C78.4692 12.7584 78.2369 12.7967 78.012 12.7556C77.8704 12.7332 77.7356 12.6799 77.6171 12.5994C77.4985 12.519 77.3992 12.4133 77.3261 12.2901C77.1019 11.8989 76.6977 11.6251 76.21 11.5404C75.9734 11.497 75.7299 11.5093 75.4989 11.5763C75.2679 11.6433 75.0556 11.7631 74.8788 11.9263C74.5398 12.2366 74.3534 12.7034 74.3808 13.178C74.4055 13.6356 74.6676 14.0829 75.0627 14.3436L77.7121 16.1742C78.1604 16.483 78.5319 16.8906 78.7979 17.3655C79.064 17.8404 79.2175 18.37 79.2467 18.9136C79.2898 19.4537 79.2054 19.9964 79.0002 20.4978C78.795 20.9992 78.4748 21.4454 78.0654 21.8003C77.6633 22.167 77.1852 22.4405 76.6653 22.6015C76.1454 22.7624 75.5964 22.8067 75.0574 22.7313L74.9857 22.7208H74.9844ZM82.5937 22.7482C82.3668 22.7099 82.1607 22.5928 82.0117 22.4175C81.8626 22.2422 81.7802 22.02 81.7788 21.7899V4.91553C81.7788 4.65215 81.8831 4.40703 82.0734 4.22058C82.1873 4.11113 82.3255 4.03039 82.4767 3.98504C82.628 3.93969 82.7879 3.93104 82.9431 3.95981C83.1691 3.99665 83.3743 4.11338 83.5215 4.28878C83.6687 4.46418 83.748 4.68659 83.745 4.91553V9.68108H85.6095C85.8363 9.68108 86.0632 9.70064 86.2823 9.73976C87.1634 9.88816 87.9635 10.3436 88.541 11.0254C89.1185 11.7072 89.4361 12.5713 89.4376 13.4648L89.4389 21.7899C89.4402 21.9332 89.4096 22.075 89.3493 22.205C89.289 22.3351 89.2006 22.4501 89.0904 22.5417C88.9801 22.6333 88.8509 22.6992 88.7121 22.7347C88.5732 22.7702 88.4282 22.7744 88.2876 22.7469C88.0604 22.7093 87.8538 22.5924 87.7047 22.417C87.5555 22.2415 87.4733 22.0189 87.4727 21.7886V13.4648C87.473 13.221 87.4249 12.9795 87.331 12.7544C87.2372 12.5294 87.0995 12.3252 86.9259 12.1539C86.7524 11.9825 86.5466 11.8474 86.3203 11.7564C86.0941 11.6654 85.852 11.6204 85.6082 11.6238H83.745V21.7899C83.7457 21.9187 83.7207 22.0464 83.6714 22.1654C83.6221 22.2844 83.5495 22.3924 83.458 22.483C83.3664 22.5736 83.2577 22.645 83.1381 22.693C83.0186 22.741 82.8907 22.7647 82.7619 22.7626C82.7051 22.763 82.6484 22.7586 82.5924 22.7495L82.5937 22.7482ZM96.1054 11.5391C95.8109 11.4856 95.5078 11.5039 95.2218 11.5924C94.9359 11.6809 94.6754 11.8371 94.4626 12.0476C94.1132 12.3931 93.9202 12.8559 93.9202 13.3514V18.9788C93.9202 19.8732 94.5643 20.6347 95.4496 20.7885C95.7441 20.8424 96.0473 20.8246 96.3335 20.7365C96.6197 20.6485 96.8805 20.4928 97.0938 20.2827C97.451 19.9332 97.6466 19.4717 97.6466 18.9775V13.3514C97.6466 12.4557 96.9986 11.6929 96.1054 11.5378V11.5391ZM95.1106 22.7026C94.2296 22.5539 93.4296 22.0985 92.8521 21.4167C92.2747 20.735 91.957 19.8709 91.9553 18.9775V13.3514C91.954 11.2653 93.6725 9.56765 95.7847 9.56765C96.005 9.56765 96.228 9.5846 96.4444 9.62371C97.3275 9.77138 98.1298 10.2266 98.7096 10.9087C99.2895 11.5909 99.6094 12.4561 99.6128 13.3514V18.9775C99.6136 19.4769 99.5139 19.9713 99.3197 20.4314C99.1255 20.8915 98.8407 21.3078 98.4823 21.6556C98.0455 22.0878 97.5111 22.4085 96.9243 22.5907C96.3374 22.7729 95.7154 22.8113 95.1106 22.7026ZM114.728 10.762C114.76 10.6428 114.767 10.5186 114.75 10.3966C114.732 10.2746 114.691 10.1572 114.628 10.0514C114.482 9.82392 114.253 9.66353 113.989 9.60546C113.746 9.55876 113.494 9.60636 113.285 9.73859C113.076 9.87082 112.925 10.0778 112.862 10.3174C112.239 12.808 111.608 15.2966 110.969 17.7832L110.951 17.8562L110.934 17.7832C110.126 14.5783 109.047 10.3643 109.036 10.32C108.997 10.138 108.904 9.9721 108.769 9.84408C108.634 9.71607 108.463 9.63196 108.279 9.60285C108.039 9.56223 107.792 9.61301 107.587 9.7452C107.382 9.8774 107.233 10.0815 107.171 10.3174C107.158 10.3565 106.103 14.5783 105.275 17.7832L105.257 17.8562L105.239 17.7832C104.433 14.5783 103.352 10.3578 103.342 10.3174C103.279 10.0721 103.122 9.86133 102.905 9.73059C102.688 9.59985 102.429 9.55959 102.183 9.6185C101.937 9.67673 101.725 9.8298 101.593 10.0442C101.46 10.2585 101.418 10.5166 101.476 10.762L104.325 22.0168C104.381 22.2221 104.502 22.4037 104.67 22.5344C104.837 22.6651 105.043 22.7379 105.256 22.7417C105.472 22.7488 105.683 22.68 105.853 22.5473C106.024 22.4146 106.142 22.2264 106.188 22.0155C106.199 21.9724 107.279 17.7519 108.086 14.5444L108.103 14.474L108.124 14.5444C108.959 17.7819 110.016 22.0155 110.017 22.0181C110.073 22.2236 110.195 22.4054 110.363 22.5361C110.531 22.6669 110.737 22.7395 110.95 22.743C111.166 22.7491 111.377 22.6797 111.547 22.5466C111.717 22.4135 111.835 22.2251 111.881 22.0142L114.728 10.762Z" fill="#222222"/>
<path d="M46.443 22.7364C46.2258 22.7009 46.0286 22.5885 45.8871 22.4198C45.7457 22.2512 45.6695 22.0373 45.6724 21.8172V10.5898C45.6721 10.4662 45.6963 10.3437 45.7438 10.2295C45.7912 10.1153 45.8609 10.0117 45.9487 9.92474C46.0365 9.83774 46.1408 9.76909 46.2555 9.72277C46.3701 9.67646 46.4928 9.65341 46.6164 9.65496H54.8267C55.0406 9.65496 55.2557 9.67582 55.4643 9.71103C56.3133 9.85315 57.0846 10.2909 57.642 10.9468C58.1994 11.6027 58.5069 12.4346 58.5101 13.2953V21.8172C58.5103 21.9414 58.4854 22.0644 58.4367 22.1787C58.3881 22.293 58.3168 22.3962 58.2272 22.4822C58.1183 22.5882 57.9856 22.6666 57.8402 22.7109C57.6948 22.7551 57.5409 22.7639 57.3914 22.7364C57.1743 22.7008 56.9772 22.5885 56.836 22.4197C56.6948 22.251 56.6189 22.0372 56.6221 21.8172V13.2953C56.6213 13.0609 56.5741 12.829 56.4833 12.613C56.3924 12.3969 56.2598 12.201 56.0929 12.0364C55.926 11.8718 55.7282 11.7419 55.5109 11.6541C55.2936 11.5662 55.0611 11.5223 54.8267 11.5247H53.0379V21.8172C53.0369 21.9556 53.0055 22.0921 52.9459 22.217C52.8863 22.3419 52.7999 22.4521 52.6928 22.5399C52.5858 22.6276 52.4608 22.6907 52.3266 22.7247C52.1925 22.7587 52.0525 22.7627 51.9166 22.7364C51.6996 22.7006 51.5026 22.5881 51.3615 22.4195C51.2203 22.2508 51.1444 22.0371 51.1473 21.8172V11.5234H47.5617V21.8172C47.5622 21.9414 47.5375 22.0643 47.489 22.1786C47.4406 22.2929 47.3695 22.3962 47.2801 22.4822C47.1712 22.5886 47.0383 22.6673 46.8926 22.7115C46.7469 22.7558 46.5927 22.7643 46.443 22.7364ZM60.0943 27.6285C59.8765 27.5934 59.6786 27.4811 59.5368 27.312C59.3951 27.143 59.319 26.9285 59.3224 26.708C59.3224 26.4537 59.4189 26.2164 59.5949 26.043C59.775 25.8683 60.0168 25.7718 60.2677 25.7744C61.063 25.7744 61.7541 25.2659 61.9823 24.5097L62.9575 21.2996L59.7657 10.7606C59.7292 10.6419 59.7165 10.5171 59.7284 10.3934C59.7404 10.2698 59.7766 10.1497 59.8352 10.0402C59.8937 9.93059 59.9734 9.83369 60.0695 9.75505C60.1657 9.67641 60.2765 9.61757 60.3955 9.58195C60.6321 9.51753 60.8844 9.54538 61.1012 9.65987C61.3181 9.77436 61.4834 9.96694 61.5637 10.1987L63.9367 18.0609L66.3345 10.2039C66.4531 9.76057 66.9343 9.47894 67.4284 9.565L67.4949 9.57934C68.006 9.7371 68.2877 10.2678 68.1325 10.7619L64.8468 21.5773L63.8089 25.039C63.5404 25.8344 63.0788 26.4811 62.4764 26.9166C61.8245 27.3925 61.0604 27.6428 60.2677 27.6428C60.2095 27.6431 60.1515 27.6378 60.0943 27.6272V27.6285Z" fill="white"/>
</svg>
