<svg id="gg_coins_copy" data-name="gg_coins copy" xmlns="http://www.w3.org/2000/svg" xmlns:xlink="http://www.w3.org/1999/xlink" width="13.437" height="13.428" viewBox="0 0 13.437 13.428">
  <defs>
    <clipPath id="clip-path">
      <path id="Clip_3" data-name="Clip 3" d="M0,13.428V0H13.437V13.428Z" fill="none"/>
    </clipPath>
  </defs>
  <path id="Fill_1" data-name="Fill 1" d="M13.222,6.5a6.34,6.34,0,0,1-.091.981,7.258,7.258,0,0,1-.452,1.508l.328-2.47A6.337,6.337,0,0,0,6.624.239,6.337,6.337,0,0,0,.242,6.514H0A6.579,6.579,0,0,1,6.624,0a6.538,6.538,0,0,1,6.6,6.479V6.5" transform="translate(0.03 0.22)" fill="#edcb45"/>
  <g id="Group_6" data-name="Group 6">
    <path id="Clip_3-2" data-name="Clip 3" d="M0,13.428V0H13.437V13.428Z" fill="none"/>
    <g id="Group_6-2" data-name="Group 6" clip-path="url(#clip-path)">
      <path id="Fill_2" data-name="Fill 2" d="M6.718,0a6.681,6.681,0,0,1,6.718,6.643,6.681,6.681,0,0,1-6.718,6.643A6.681,6.681,0,0,1,0,6.643,6.681,6.681,0,0,1,6.718,0" transform="translate(0)" fill="#d29a2f"/>
      <path id="Fill_4" data-name="Fill 4" d="M6.646,0A6.608,6.608,0,1,1,0,6.608,6.627,6.627,0,0,1,6.646,0" transform="translate(0 0.22)" fill="#d29a2f"/>
      <path id="Fill_5" data-name="Fill 5" d="M6.52,13.034h0A6.517,6.517,0,0,1,1.877,1.941,6.474,6.474,0,0,1,6.472,0h.022a6.517,6.517,0,0,1,.069,13.034Zm-1.166-.782h0a5.944,5.944,0,0,0,.692.08v.024a.446.446,0,0,0,.893,0v-.024a5.832,5.832,0,0,0,.666-.088v.061a.445.445,0,0,0,.526.274.446.446,0,0,0,.323-.542v-.021a5.813,5.813,0,0,0,.559-.231v.041a.449.449,0,0,0,.613.144l.005,0a.442.442,0,0,0,.142-.607v-.019c.162-.113.319-.221.465-.32l.016.017a.449.449,0,0,0,.632,0l.005-.006a.441.441,0,0,0-.005-.623l-.016-.016c.12-.137.235-.279.341-.422h.018a.449.449,0,0,0,.592-.137l.011-.017a.44.44,0,0,0-.146-.606h-.019a5.741,5.741,0,0,0,.269-.6h.019a.445.445,0,1,0,.269-.849l-.008.011a5.781,5.781,0,0,0,.116-.787h.024a.443.443,0,0,0,0-.887h-.021a5.8,5.8,0,0,0-.116-.806h.019a.446.446,0,0,0-.269-.849H11.95a5.791,5.791,0,0,0-.269-.6H11.7l.026-.016.005,0a.442.442,0,0,0,.119-.612A.449.449,0,0,0,11.23,3.1h-.016c-.11-.151-.225-.293-.341-.422l.005-.005a.441.441,0,0,0-.005-.623.449.449,0,0,0-.632,0c-.148-.12-.3-.236-.467-.347V1.685a.442.442,0,0,0-.166-.6.448.448,0,0,0-.613.145v.013a5.982,5.982,0,0,0-.562-.231V1a.446.446,0,0,0-.86-.231V.784A5.861,5.861,0,0,0,6.9.7a.446.446,0,0,0-.893,0,5.923,5.923,0,0,0-.639.121V.8a.446.446,0,0,0-.86.231v.017a5.933,5.933,0,0,0-.559.231V1.241A.449.449,0,0,0,3.341,1.1l-.005,0a.44.44,0,0,0-.142.607v.016c-.163.111-.321.23-.467.352L2.7,2.048a.448.448,0,0,0-.631,0l-.006.006a.441.441,0,0,0,.006.623,5.316,5.316,0,0,0-.339.419H1.712a.449.449,0,0,0-.592.137l0,.005a.44.44,0,0,0,.127.61h.019a5.965,5.965,0,0,0-.269.6H.973A.445.445,0,0,0,.7,5.294H.729A5.8,5.8,0,0,0,.613,6.1H.554a.444.444,0,0,0,.016.887H.613a5.739,5.739,0,0,0,.116.784H.7a.446.446,0,0,0,.135.87.448.448,0,0,0,.135-.021H.994a5.917,5.917,0,0,0,.269.594H1.241A.441.441,0,0,0,1.1,9.8a.448.448,0,0,0,.61.164l.011-.024c.1.141.218.283.341.421l-.018.019-.006.006a.446.446,0,0,0,.637.623l.017-.019c.146.12.3.237.462.346l-.014.022v.021h0l0,0a.441.441,0,0,0,.185.6.448.448,0,0,0,.6-.169v-.021a5.559,5.559,0,0,0,.559.231v.062a.446.446,0,0,0,.871.191v-.022Z" transform="translate(0.091 0.379)" fill="#f4da51"/>
    </g>
  </g>
  <path id="Fill_7" data-name="Fill 7" d="M.274,0a.271.271,0,1,1,0,.543A.271.271,0,1,1,.274,0" transform="translate(6.286 0.798)" fill="#ebbe46"/>
  <path id="Fill_8" data-name="Fill 8" d="M.009.2A.274.274,0,0,1,.539.343.274.274,0,0,1,.009.2" transform="translate(7.831 1.006)" fill="#ebbe46"/>
  <path id="Fill_9" data-name="Fill 9" d="M.038.138A.269.269,0,0,1,.4.034l.008,0A.269.269,0,0,1,.519.4L.514.412a.269.269,0,0,1-.365.1L.14.512A.269.269,0,0,1,.033.147L.038.138" transform="translate(9.236 1.55)" fill="#ebbe46"/>
  <path id="Fill_10" data-name="Fill 10" d="M.081.082A.269.269,0,0,1,.461.075L.468.082a.269.269,0,0,1,0,.38l0,0a.269.269,0,0,1-.38.007L.081.466a.269.269,0,0,1,0-.38l0,0" transform="translate(10.381 2.455)" fill="#ebbe46"/>
  <path id="Fill_11" data-name="Fill 11" d="M.081.082A.269.269,0,0,1,.461.075L.468.082a.269.269,0,0,1,0,.38l0,0a.269.269,0,0,1-.38.007L.081.467a.269.269,0,0,1,0-.38l0,0" transform="translate(2.179 2.452)" fill="#ebbe46"/>
  <path id="Fill_12" data-name="Fill 12" d="M.13.043A.269.269,0,0,1,.5.124l0,.008A.269.269,0,0,1,.422.5l0,0A.269.269,0,0,1,.046.424l0-.008A.269.269,0,0,1,.125.046l0,0" transform="translate(11.283 3.561)" fill="#ebbe46"/>
  <path id="Fill_13" data-name="Fill 13" d="M.2.012A.273.273,0,0,1,.537.193.274.274,0,0,1,.012.351.273.273,0,0,1,.2.012" transform="translate(11.916 4.962)" fill="#ebbe46"/>
  <path id="Fill_14" data-name="Fill 14" d="M.274,0a.271.271,0,1,1,0,.543A.271.271,0,1,1,.274,0" transform="translate(6.286 12.461)" fill="#ebbe46"/>
  <path id="Fill_15" data-name="Fill 15" d="M.2.01A.271.271,0,1,1,.01.343.272.272,0,0,1,.2.01" transform="translate(7.754 12.222)" fill="#ebbe46"/>
  <path id="Fill_16" data-name="Fill 16" d="M.138.039A.269.269,0,0,1,.507.13l0,.008a.269.269,0,0,1-.1.368L.41.509A.269.269,0,0,1,.041.416l0,0A.269.269,0,0,1,.13.043l.008,0" transform="translate(9.211 11.681)" fill="#ebbe46"/>
  <path id="Fill_17" data-name="Fill 17" d="M.081.082A.269.269,0,0,1,.461.075L.468.082a.269.269,0,0,1,0,.38l0,0a.269.269,0,0,1-.38.007L.081.467a.269.269,0,0,1,0-.38l0,0" transform="translate(10.386 10.802)" fill="#ebbe46"/>
  <path id="Fill_18" data-name="Fill 18" d="M.042.131A.269.269,0,0,1,.41.038l.008,0A.269.269,0,0,1,.509.412l0,0A.269.269,0,0,1,.138.51L.13.505A.269.269,0,0,1,.039.136l0,0" transform="translate(11.283 9.694)" fill="#ebbe46"/>
  <path id="Fill_19" data-name="Fill 19" d="M.011.194A.274.274,0,0,1,.537.35.272.272,0,0,1,.2.532.273.273,0,0,1,.011.194" transform="translate(11.916 8.294)" fill="#ebbe46"/>
  <path id="Fill_20" data-name="Fill 20" d="M.274,0A.273.273,0,0,1,.548.271.274.274,0,0,1,0,.271.273.273,0,0,1,.274,0" transform="translate(12.163 6.638)" fill="#ebbe46"/>
  <path id="Fill_21" data-name="Fill 21" d="M.2.01A.271.271,0,1,1,.01.343.272.272,0,0,1,.2.01" transform="translate(4.714 1.014)" fill="#ebbe46"/>
  <path id="Fill_22" data-name="Fill 22" d="M.139.039A.269.269,0,0,1,.508.13l0,.008a.269.269,0,0,1-.1.368L.41.509A.269.269,0,0,1,.041.417l0-.008a.269.269,0,0,1,.1-.368l.006,0" transform="translate(3.36 1.574)" fill="#ebbe46"/>
  <path id="Fill_23" data-name="Fill 23" d="M.041.131A.269.269,0,0,1,.41.038l.008,0a.269.269,0,0,1,.1.367L.511.419A.268.268,0,0,1,.143.512l-.008,0a.269.269,0,0,1-.1-.367L.041.131" transform="translate(1.292 3.561)" fill="#ebbe46"/>
  <path id="Fill_24" data-name="Fill 24" d="M.011.194A.273.273,0,0,1,.351.012.271.271,0,1,1,.2.532.273.273,0,0,1,.011.194" transform="translate(0.655 4.965)" fill="#ebbe46"/>
  <path id="Fill_25" data-name="Fill 25" d="M.009.2A.273.273,0,0,1,.345.01.271.271,0,1,1,.2.534.273.273,0,0,1,.009.2" transform="translate(4.742 12.255)" fill="#ebbe46"/>
  <path id="Fill_26" data-name="Fill 26" d="M.036.138A.269.269,0,0,1,.4.034l.008,0A.269.269,0,0,1,.513.4l0,0a.269.269,0,0,1-.365.1l-.008,0a.269.269,0,0,1-.1-.366v0" transform="translate(3.361 11.686)" fill="#ebbe46"/>
  <path id="Fill_27" data-name="Fill 27" d="M.269.082A.269.269,0,0,1,.649.075L.656.082a.269.269,0,0,1,0,.38l0,0a.269.269,0,0,1-.38.007L.269.467C.12.467,0,.423,0,.274S.12.006.269.082" transform="translate(1.997 10.804)" fill="#ebbe46"/>
  <path id="Fill_28" data-name="Fill 28" d="M.13.043A.268.268,0,0,1,.5.124l0,.008A.269.269,0,0,1,.422.5l0,0A.269.269,0,0,1,.046.424l0-.008A.269.269,0,0,1,.125.046l0,0" transform="translate(1.291 9.694)" fill="#ebbe46"/>
  <path id="Fill_29" data-name="Fill 29" d="M.2.012a.271.271,0,1,1,.157.52A.271.271,0,1,1,.2.012" transform="translate(0.656 8.295)" fill="#ebbe46"/>
  <path id="Fill_30" data-name="Fill 30" d="M.274,0A.271.271,0,1,1,0,.271.273.273,0,0,1,.274,0" transform="translate(0.411 6.638)" fill="#ebbe46"/>
  <path id="Fill_31" data-name="Fill 31" d="M5.794,0a5.834,5.834,0,1,0,5.875,5.824A5.834,5.834,0,0,0,5.794,0" transform="translate(0.769 1.075)" fill="#bc8c33"/>
  <path id="Fill_32" data-name="Fill 32" d="M5.579,0a5.619,5.619,0,1,0,5.66,5.619A5.619,5.619,0,0,0,5.579,0" transform="translate(0.984 1.277)" fill="#d29a2f"/>
  <path id="Fill_33" data-name="Fill 33" d="M.341.683A.341.341,0,0,1,.336,0h0A.341.341,0,0,1,.347.683H.341" transform="translate(6.227 1.5)" fill="#d8a62e"/>
  <path id="Fill_34" data-name="Fill 34" d="M.341.683A.341.341,0,0,1,.336,0h0A.344.344,0,0,1,.682.33V.336A.341.341,0,0,1,.347.682H.341" transform="translate(6.227 11.556)" fill="#d8a62e"/>
  <path id="Fill_35" data-name="Fill 35" d="M.312.624H.291A.312.312,0,0,1,0,.291H0A.309.309,0,0,1,.309,0H.333A.312.312,0,0,1,.312.624" transform="translate(1.585 4.689)" fill="#d8a62e"/>
  <path id="Fill_36" data-name="Fill 36" d="M.8,3a1.153,1.153,0,0,0-.4-.07H.363l-.049,0A.807.807,0,0,0,0,2.994,5.311,5.311,0,0,1,1.389,1.207,5.169,5.169,0,0,1,4.152,0,4.641,4.641,0,0,0,1.814,1.475,3.861,3.861,0,0,0,.8,3" transform="translate(1.682 1.575)" fill="#d8a62e"/>
  <path id="Fill_37" data-name="Fill 37" d="M.018,2.221Q0,2,0,1.779A5.416,5.416,0,0,1,.3,0,.537.537,0,0,0,.465.242a.96.96,0,0,0,.269.2A3.326,3.326,0,0,0,.3,1.819c0,.051-.009.1-.012.152l-.271.249" transform="translate(1.166 5.149)" fill="#d8a62e"/>
  <path id="Fill_38" data-name="Fill 38" d="M.757,1h0A5.058,5.058,0,0,1,0,.4L.436,0a5.289,5.289,0,0,0,.642.706L.758,1Z" transform="translate(2.814 10.376)" fill="#d8a62e"/>
  <path id="Fill_39" data-name="Fill 39" d="M.389,3.98h0C.334,3.86.284,3.737.235,3.6l.493-.454A4.389,4.389,0,0,0,1,3.609C1,3.631.955,3.743.735,3.878a.705.705,0,0,1-.346.1ZM0,1.012v0A5.144,5.144,0,0,1,.268,0,4.5,4.5,0,0,0,.181.846L0,1.01Z" transform="translate(1.667 5.912)" fill="#d8a62e"/>
  <path id="Fill_40" data-name="Fill 40" d="M.315.624H.29A.312.312,0,0,1,.311,0H.332a.312.312,0,0,1,.29.332V.339A.309.309,0,0,1,.315.624" transform="translate(10.919 8.466)" fill="#d8a62e"/>
  <path id="Fill_41" data-name="Fill 41" d="M0,3.01A4.651,4.651,0,0,0,2.335,1.526,3.861,3.861,0,0,0,3.354,0a1.153,1.153,0,0,0,.4.07h.036l.05,0A.808.808,0,0,0,4.149.008,5.316,5.316,0,0,1,2.763,1.8,5.172,5.172,0,0,1,0,3.01" transform="translate(7.291 9.196)" fill="#d8a62e"/>
  <path id="Fill_42" data-name="Fill 42" d="M.433,2.339A.538.538,0,0,0,.269,2.1.96.96,0,0,0,0,1.9,3.326,3.326,0,0,0,.433.52Q.446.376.453.231L.7,0A5.242,5.242,0,0,1,.734.56a5.412,5.412,0,0,1-.3,1.779" transform="translate(11.236 6.301)" fill="#d8a62e"/>
  <path id="Fill_43" data-name="Fill 43" d="M.983,1.525l-.041,0,.527-.486c.035.043.068.086.1.13A.7.7,0,0,1,1.3,1.42.533.533,0,0,1,.983,1.525ZM.5.836h0A5.506,5.506,0,0,0,0,.3L.326,0A5.051,5.051,0,0,1,.915.454L.5.835Z" transform="translate(9.27 2.431)" fill="#d8a62e"/>
  <path id="Fill_44" data-name="Fill 44" d="M.74,3.97h0a4.58,4.58,0,0,0,.084-.957l.2-.185A5.146,5.146,0,0,1,.74,3.97ZM.294.866h0A4.441,4.441,0,0,0,0,.371C.006.348.049.236.269.1A.715.715,0,0,1,.616,0C.679.138.735.278.783.416L.3.865Z" transform="translate(10.454 3.899)" fill="#d8a62e"/>
  <path id="Fill_45" data-name="Fill 45" d="M.836,2.042A6.464,6.464,0,0,1,0,.005L.006,0A6.547,6.547,0,0,0,.851,2.028l-.015.014" transform="translate(0.161 8.307)" fill="#fffffe"/>
  <path id="Fill_46" data-name="Fill 46" d="M.845,9.683h0A6.551,6.551,0,0,1,0,7.654l.065-.06A6.448,6.448,0,0,0,.884,9.647l-.038.035Zm.176-.163h0a.443.443,0,0,1,.145-.578h.022a5.759,5.759,0,0,1-.269-.594H.895a.462.462,0,0,1-.135.02A.445.445,0,0,1,.626,7.5H.653C.624,7.366.6,7.238.582,7.117L.655,7.05a5.868,5.868,0,0,0,.112.592H.757a.239.239,0,0,0-.073.011A.274.274,0,0,0,.5,7.993a.271.271,0,0,0,.261.193.267.267,0,0,0,.08-.012A.27.27,0,0,0,.913,8.14a5.821,5.821,0,0,0,.4.915.26.26,0,0,0-.061.029l-.005,0a.27.27,0,0,0-.107.322l-.12.11ZM9.763,1.471c-.068-.047-.133-.09-.2-.132a.242.242,0,0,0,.019-.03L9.588,1.3A.269.269,0,0,0,9.48.935l-.008,0A.271.271,0,0,0,9.342.9a.267.267,0,0,0-.234.138L9.1,1.044a.159.159,0,0,0-.011.023A5.967,5.967,0,0,0,8.2.7.274.274,0,0,0,8.009.362a.265.265,0,0,0-.072-.01H7.926L8.073.218a.447.447,0,0,1,.284.508V.742a5.989,5.989,0,0,1,.562.231V.959a.451.451,0,0,1,.779.452v.014l.022.015.044.03h0Zm.522-.48A6.5,6.5,0,0,0,8.306,0h0l.005,0a6.556,6.556,0,0,1,1.978.989h0Z" transform="translate(0.167 0.653)" fill="#d9a935"/>
  <path id="Fill_47" data-name="Fill 47" d="M.818,9.644h0A6.468,6.468,0,0,1,0,7.592l.518-.477c.018.118.041.246.07.38H.561a.445.445,0,0,0,.269.849H.854a5.748,5.748,0,0,0,.269.594H1.1a.444.444,0,0,0-.145.579l-.137.126ZM9.7,1.467h0l-.033-.022-.033-.023V1.408a.442.442,0,0,0-.166-.6.449.449,0,0,0-.613.145V.97A5.984,5.984,0,0,0,8.292.739V.723A.443.443,0,0,0,8.008.215L8.241,0A6.482,6.482,0,0,1,10.22.989L9.7,1.466Z" transform="translate(0.232 0.656)" fill="#f6e068"/>
  <path id="Fill_48" data-name="Fill 48" d="M.5.42A4.994,4.994,0,0,0,0,.255L.228,0H.239A.233.233,0,0,1,.311.012.343.343,0,0,1,.5.417v0" transform="translate(7.865 1.006)" fill="#efc962"/>
  <path id="Fill_49" data-name="Fill 49" d="M.473.442Q.243.3,0,.17L.011.147.016.138a.268.268,0,0,1,.365-.1l.008,0A.269.269,0,0,1,.5.4L.492.412a.276.276,0,0,1-.019.03" transform="translate(9.258 1.55)" fill="#efc962"/>
  <path id="Fill_50" data-name="Fill 50" d="M.028.42A.282.282,0,0,1,.2.038l.008,0A.509.509,0,0,1,.3,0C.343.051.381.1.42.152L.028.42" transform="translate(1.291 9.707)" fill="#efc962"/>
  <path id="Fill_51" data-name="Fill 51" d="M.272.543A.271.271,0,0,1,.2.012.276.276,0,0,1,.275,0h0Q.34.253.424.5A.28.28,0,0,1,.352.532a.276.276,0,0,1-.08.012" transform="translate(0.656 8.295)" fill="#efc962"/>
  <path id="Fill_52" data-name="Fill 52" d="M.732,8.62h0l-.055-.1L.66,8.492a5.8,5.8,0,0,1-.4-.915c-.055-.161-.1-.328-.145-.5A5.846,5.846,0,0,1,0,6.487l.2-.18A5.55,5.55,0,0,0,.9,8.466L.733,8.62ZM8.952,1.052h0A5.577,5.577,0,0,0,6.859.169L7.043,0c.167.037.336.083.5.137A5.772,5.772,0,0,1,8.435.5c.159.081.318.173.473.272.077.049.141.092.2.133l-.155.143Z" transform="translate(0.822 1.216)" fill="#c89e32"/>
  <path id="Fill_53" data-name="Fill 53" d="M.7,8.3h0A5.551,5.551,0,0,1,0,6.139l.166-.154a5.247,5.247,0,0,0,.349,1.5A7.609,7.609,0,0,1,.436,5.736l.213-.2A5.168,5.168,0,0,0,.592,6.565,4.968,4.968,0,0,0,.884,8.131L.7,8.3Zm.674-.62h0A4.442,4.442,0,0,1,.967,6.524,4.513,4.513,0,0,1,.83,5.374L6.434.212a4.592,4.592,0,0,1,1.65.981c.06.052.116.105.169.154L1.378,7.676Zm7.2-6.63h0C8.5.993,8.411.94,8.323.89A5.191,5.191,0,0,0,6.445.2L6.663,0A5.579,5.579,0,0,1,8.756.884l-.177.163Z" transform="translate(1.018 1.384)" fill="#d9a935"/>
  <path id="Fill_54" data-name="Fill 54" d="M.42,1.748A4.543,4.543,0,0,1,0,.249L.325,0a6.309,6.309,0,0,0,.1,1.748" transform="translate(1.184 7.12)" fill="#deb33e"/>
  <path id="Fill_55" data-name="Fill 55" d="M.3,2.757A4.984,4.984,0,0,1,0,1.191,5.133,5.133,0,0,1,.063.166L.243,0A4.539,4.539,0,0,0,.381,1.151,4.445,4.445,0,0,0,.791,2.3L.3,2.757" transform="translate(1.605 6.758)" fill="#deb33e"/>
  <path id="Fill_56" data-name="Fill 56" d="M1.818,1.145Q1.739,1.07,1.65.991A4.633,4.633,0,0,0,0,.01L.011,0A5.227,5.227,0,0,1,1.889.687q.13.075.255.158l-.326.3" transform="translate(7.452 1.586)" fill="#deb33e"/>
  <path id="Fill_57" data-name="Fill 57" d="M.537.622A6.573,6.573,0,0,1,0,.014L.015,0A6.635,6.635,0,0,0,.56.6L.537.622" transform="translate(1.427 10.939)" fill="#fffffe"/>
  <path id="Fill_58" data-name="Fill 58" d="M.545,9.426h0A6.535,6.535,0,0,1,0,8.825L.032,8.8A6.728,6.728,0,0,0,.57,9.4l-.025.024Zm.032-.567h0a.446.446,0,0,1,.113-.2l.006-.005.019-.019C.638,8.546.566,8.46.495,8.369l.032-.03c.106.138.218.272.335.4a.256.256,0,0,0-.039.033.2.2,0,0,0-.091-.023A.174.174,0,0,0,.576,8.859ZM9.526.935,9.408.806h0l0,0a.269.269,0,0,0,0-.38L9.4.415A.265.265,0,0,0,9.213.34L9.356.2a.436.436,0,0,1,.166.1.44.44,0,0,1,.005.623v0Zm.61-.355A6.536,6.536,0,0,0,9.579,0a6.033,6.033,0,0,1,.559.578h0Z" transform="translate(1.442 2.115)" fill="#d9a935"/>
  <path id="Fill_59" data-name="Fill 59" d="M.539,9.4h0A6.732,6.732,0,0,1,0,8.8L.463,8.37c.071.089.144.176.218.259l-.019.019-.005.006a.432.432,0,0,0-.116.213.254.254,0,0,0-.018.1.205.205,0,0,0,.015.082.449.449,0,0,0,.124.231l.006.005L.539,9.4ZM9.593,1.051h0l-.1-.115a.441.441,0,0,0,0-.626.453.453,0,0,0-.166-.1L9.547,0A6.531,6.531,0,0,1,10.1.581l-.509.469Z" transform="translate(1.474 2.114)" fill="#f6e068"/>
  <path id="Fill_60" data-name="Fill 60" d="M.341.466Q.177.292,0,.132L.143,0h0A.268.268,0,0,1,.333.075L.34.082a.269.269,0,0,1,0,.38l0,0" transform="translate(10.509 2.455)" fill="#efc962"/>
  <path id="Fill_61" data-name="Fill 61" d="M.275.424.269.417C.152.417.053.39.016.307A.2.2,0,0,1,0,.225a.261.261,0,0,1,.018-.1.176.176,0,0,1,.16-.12A.2.2,0,0,1,.269.033.269.269,0,0,1,.307,0q.1.107.2.209L.275.424" transform="translate(1.997 10.853)" fill="#efc962"/>
  <path id="Fill_62" data-name="Fill 62" d="M.536,8.476h0c-.071-.07-.138-.14-.2-.208C.217,8.138.1,8,0,7.868l.165-.151A5.619,5.619,0,0,0,.7,8.324l-.165.152ZM8.945.721h0a5.708,5.708,0,0,0-.557-.58L8.54,0c.122.11.236.222.34.334.04.042.08.086.118.129s.067.077.1.116L8.946.72Z" transform="translate(1.969 2.586)" fill="#c89e32"/>
  <path id="Fill_63" data-name="Fill 63" d="M.537,8.182h0A5.634,5.634,0,0,1,0,7.575l.184-.169a.534.534,0,0,0-.033.049,5.1,5.1,0,0,0,.53.6l-.142.131Zm.578-.533h0A2.179,2.179,0,0,1,.8,7.1a.5.5,0,0,0-.057,0A.533.533,0,0,0,.419,7.2L.38,7.225,7.636.54a2.478,2.478,0,0,1,.426.686h.015L1.116,7.648ZM8.605.741h0A5.009,5.009,0,0,0,8.051.158L8.223,0A5.777,5.777,0,0,1,8.78.579L8.606.741Z" transform="translate(2.134 2.727)" fill="#d9a935"/>
  <path id="Fill_64" data-name="Fill 64" d="M.529.953A5.05,5.05,0,0,1,0,.358C.01.341.021.324.033.309L.23.128.269.105A.536.536,0,0,1,.588,0,.53.53,0,0,1,.645,0a2.149,2.149,0,0,0,.32.548l-.436.4" transform="translate(2.284 9.825)" fill="#deb33e"/>
  <path id="Fill_65" data-name="Fill 65" d="M.442,1.069H.426A2.437,2.437,0,0,0,0,.382L.415,0A5.045,5.045,0,0,1,.969.583l-.527.486" transform="translate(9.77 2.885)" fill="#deb33e"/>
  <path id="Fill_66" data-name="Fill 66" d="M1.846.948A6.549,6.549,0,0,1,0,.013L.014,0A6.636,6.636,0,0,0,1.852.943l-.005,0" transform="translate(2.706 12.161)" fill="#fffffe"/>
  <path id="Fill_67" data-name="Fill 67" d="M1.838,9.632h0A6.618,6.618,0,0,1,0,8.689l.021-.02a6.485,6.485,0,0,0,1.833.947l-.016.015Zm.208-.192h0a.446.446,0,0,1-.192-.447V8.93A5.941,5.941,0,0,1,1.3,8.7V8.72a.449.449,0,0,1-.6.169.441.441,0,0,1-.185-.6l0,0V8.269l.014-.022-.015-.01L.5,8.229l.024-.021c.048.034.1.071.172.117a.191.191,0,0,0-.018.029.268.268,0,0,0-.026.207.265.265,0,0,0,.128.161l.008,0a.263.263,0,0,0,.131.034.269.269,0,0,0,.235-.138l.008-.015,0-.006a5.82,5.82,0,0,0,.871.372l0,.005,0,.005a.272.272,0,0,0,.16.322l-.146.134ZM9.631,2.45h0c-.024-.139-.053-.278-.09-.425l.007,0a.272.272,0,0,0,.163-.132.271.271,0,0,0-.24-.4.294.294,0,0,0-.08.012l-.008,0c-.02-.056-.038-.106-.056-.152h.013a.444.444,0,0,1,.559.29.446.446,0,0,1-.29.559H9.591c.021.1.035.172.047.243l-.006.005Zm.59-.546a6.479,6.479,0,0,0-.795-1.9L9.432,0a6.436,6.436,0,0,1,.793,1.9h0ZM9.07.755H9.058C9.03.7,9,.651,8.974.6l.007,0,.005,0A.268.268,0,0,0,9.1.3L9.247.17A.44.44,0,0,1,9.1.735L9.1.739,9.07.755Z" transform="translate(2.72 3.472)" fill="#d9a935"/>
  <path id="Fill_68" data-name="Fill 68" d="M1.833,9.611h0A6.487,6.487,0,0,1,0,8.664l.478-.44.027.018-.014.022v.021h0l0,0a.441.441,0,0,0,.185.6.447.447,0,0,0,.6-.169V8.694a5.748,5.748,0,0,0,.559.231v.061a.446.446,0,0,0,.192.448l-.192.177ZM9.617,2.439v0C9.6,2.36,9.588,2.282,9.57,2.2h.019a.446.446,0,0,0-.269-.849H9.306a5.886,5.886,0,0,0-.269-.6h.011L9.075.734l.005,0A.442.442,0,0,0,9.226.165L9.406,0a6.478,6.478,0,0,1,.8,1.9l-.583.538Z" transform="translate(2.741 3.477)" fill="#f6e068"/>
  <path id="Fill_69" data-name="Fill 69" d="M.136.42Q.07.338,0,.257L.406,0C.458.154.367.321.161.41l-.01,0L.136.42" transform="translate(11.627 3.775)" fill="#efc962"/>
  <path id="Fill_70" data-name="Fill 70" d="M.183.534A5.227,5.227,0,0,0,0,.014l.009,0A.373.373,0,0,1,.1,0a.316.316,0,0,1,.3.193A.269.269,0,0,1,.192.532l-.009,0" transform="translate(12.104 4.962)" fill="#efc962"/>
  <path id="Fill_71" data-name="Fill 71" d="M.176.42A.367.367,0,0,1,.01.013L.013,0q.2.082.407.146L.176.42" transform="translate(4.742 12.445)" fill="#efc962"/>
  <path id="Fill_72" data-name="Fill 72" d="M.276.435A.268.268,0,0,1,.146.4L.138.4a.269.269,0,0,1-.1-.366v0A.267.267,0,0,1,.054,0Q.281.148.522.276L.513.294l0,0A.269.269,0,0,1,.276.435" transform="translate(3.361 11.796)" fill="#efc962"/>
  <path id="Fill_73" data-name="Fill 73" d="M1.9,8.6h0c-.132-.034-.264-.073-.392-.116a5.757,5.757,0,0,1-.871-.372c-.162-.086-.32-.179-.469-.276C.116,7.8.058,7.764,0,7.723l.17-.157a5.572,5.572,0,0,0,1.936.853l-.2.185ZM8.919,2.141v0A5.6,5.6,0,0,0,8.226.146L8.384,0,8.4.02c.018.032.037.063.054.1.027.048.055.1.085.157a5.752,5.752,0,0,1,.269.6c.02.051.039.1.057.152.059.167.111.342.157.52.035.139.066.283.091.427L8.92,2.14Z" transform="translate(3.243 3.956)" fill="#c89e32"/>
  <path id="Fill_74" data-name="Fill 74" d="M1.936,8.273h0A5.573,5.573,0,0,1,0,7.421l.157-.145c.064.041.134.084.213.13a5.21,5.21,0,0,0,1.779.671l-.214.2Zm.239-.22h0A4.6,4.6,0,0,1,.61,7.1L.49,6.992.478,6.98,7.334.664a4.445,4.445,0,0,1,.391,1.117,4.519,4.519,0,0,1,.138,1.03L2.175,8.053Zm5.89-5.427v0A5.176,5.176,0,0,0,8.1,1.741,4.982,4.982,0,0,0,7.823.214L8.055,0a5.581,5.581,0,0,1,.694,1.995l-.222.2A5.246,5.246,0,0,0,8.188.819,7.575,7.575,0,0,1,8.276,2.43l-.21.194Z" transform="translate(3.413 4.101)" fill="#d9a935"/>
  <path id="Fill_75" data-name="Fill 75" d="M1.992,1.1A5.225,5.225,0,0,1,.213.425Q.1.363,0,.3L.321,0,.452.119a4.624,4.624,0,0,0,1.565.954L1.992,1.1" transform="translate(3.571 11.082)" fill="#deb33e"/>
  <path id="Fill_76" data-name="Fill 76" d="M.109,1.612A6.117,6.117,0,0,0,0,0,4.45,4.45,0,0,1,.42,1.38l-.311.231" transform="translate(11.601 4.921)" fill="#deb33e"/>
  <path id="Fill_77" data-name="Fill 77" d="M.529,2.6a4.542,4.542,0,0,0-.137-1.03A4.446,4.446,0,0,0,0,.45L.489,0A4.987,4.987,0,0,1,.768,1.527a5.147,5.147,0,0,1-.038.885l-.2.185" transform="translate(10.748 4.316)" fill="#deb33e"/>
  <path id="Fill_78" data-name="Fill 78" d="M2.978,4.418a1.078,1.078,0,0,1-.325.051,1.024,1.024,0,0,1-.141-2.043q.046,0,.093,0h.048a1.056,1.056,0,0,1,.914.513L4.945,2.19A2.645,2.645,0,0,0,3,.911V0H1.331V1.22a2.513,2.513,0,0,0,0,4.434V6.861H3.013V6H4.572V3.375H2.978V4.418" transform="translate(1.762 3.585)" fill="#bc8c33"/>
  <path id="Fill_79" data-name="Fill 79" d="M2.868,4.3a1.047,1.047,0,0,1-.317.048.994.994,0,1,1-.04-1.983h.048a1.026,1.026,0,0,1,.887.5l1.344-.728A2.571,2.571,0,0,0,2.908.892V0H1.3V1.188A2.445,2.445,0,0,0,1.3,5.5V6.678H2.935V5.845H4.418V3.287H2.868V4.3" transform="translate(1.98 3.547)" fill="#f4da51"/>
  <path id="Fill_80" data-name="Fill 80" d="M1.967,4.418a1.076,1.076,0,0,0,.325.051,1.024,1.024,0,0,0,.142-2.043c-.031,0-.062,0-.093,0H2.292a1.056,1.056,0,0,0-.914.513L0,2.19A2.645,2.645,0,0,1,1.948.911V0H3.614V1.22a2.513,2.513,0,0,1,0,4.434V6.861H1.935V6H.376V3.375H1.97l0,1.043" transform="translate(6.573 3.585)" fill="#bc8c33"/>
  <path id="Fill_81" data-name="Fill 81" d="M1.922,4.3a1.046,1.046,0,0,0,.317.048.994.994,0,1,0,.04-1.983H2.231a1.027,1.027,0,0,0-.887.5L0,2.136A2.571,2.571,0,0,1,1.881.892V0H3.494V1.188a2.445,2.445,0,0,1,0,4.316V6.678h-1.6V5.845H.371V3.287H1.922V4.3" transform="translate(6.511 3.547)" fill="#f4da51"/>
  <path id="Fill_82" data-name="Fill 82" d="M.591,0C.554.5.481.57,0,.607c.481.038.554.107.591.607.038-.5.11-.57.591-.607C.7.567.629.5.591,0" transform="translate(2.222 9.29)" fill="#fffffe"/>
  <path id="Fill_83" data-name="Fill 83" d="M.978,0C.919.83.8.943,0,1.008c.806.064.919.177.978,1.008.059-.83.183-.943.978-1.008C1.161.941,1.037.825.978,0" transform="translate(9.215 1.301)" fill="#fffffe"/>
</svg>
