<svg xmlns="http://www.w3.org/2000/svg" width="42.812" height="37.969" viewBox="0 0 42.812 37.969">
  <g id="Group_19947" data-name="Group 19947" transform="translate(0.001 0)">
    <path id="Path_4921" data-name="Path 4921" d="M32.968,29.077H17.542a6.147,6.147,0,0,1-5.92-4.525L6.046,3.82A1.925,1.925,0,0,0,4.32,2.438L1.026,2.205A1.1,1.1,0,1,1,1.181,0L4.468.235a4.138,4.138,0,0,1,3.706,3l5.58,20.744a3.934,3.934,0,0,0,3.789,2.894H32.968A3.941,3.941,0,0,0,36.75,24l3.894-13.908a1.1,1.1,0,1,1,2.126.595L38.876,24.6a6.156,6.156,0,0,1-5.908,4.481" fill="#fff"/>
    <path id="Path_4922" data-name="Path 4922" d="M72.7,145.279a3.314,3.314,0,1,1-3.313-3.313,3.313,3.313,0,0,1,3.313,3.313" transform="translate(-51.488 -110.623)" fill="#fff"/>
    <path id="Path_4923" data-name="Path 4923" d="M137.355,145.279a3.314,3.314,0,1,1-3.313-3.313,3.313,3.313,0,0,1,3.313,3.313" transform="translate(-101.867 -110.623)" fill="#fff"/>
  </g>
</svg>
