<svg id="Group_2634" data-name="Group 2634" xmlns="http://www.w3.org/2000/svg" xmlns:xlink="http://www.w3.org/1999/xlink" width="66.396" height="66.175" viewBox="0 0 66.396 66.175">
  <defs>
    <clipPath id="clip-path">
      <path id="Path_851" data-name="Path 851" d="M49.634-52A20.379,20.379,0,0,0,29.272-31.638,20.308,20.308,0,0,0,49.634-11.277,20.379,20.379,0,0,0,70-31.638,20.379,20.379,0,0,0,49.634-52Zm4.537,14.275h3.984a.756.756,0,0,1,.775.775.756.756,0,0,1-.775.775H54.171a7.915,7.915,0,0,1-7.857,7.082H43.547l10.4,9.849a.739.739,0,0,1,0,1.107.845.845,0,0,1-.553.221.845.845,0,0,1-.553-.221L41-29.2a.861.861,0,0,1-.221-.885.832.832,0,0,1,.775-.553h4.758a6.428,6.428,0,0,0,6.308-5.533H41.555a.756.756,0,0,1-.775-.775.756.756,0,0,1,.775-.775H52.621a6.428,6.428,0,0,0-6.308-5.533H41.555a.756.756,0,0,1-.775-.775.756.756,0,0,1,.775-.775h16.6a.756.756,0,0,1,.775.775.855.855,0,0,1-.775.885H51.072A8.017,8.017,0,0,1,54.171-37.725Z" transform="translate(-29.272 52)" fill="#153566"/>
    </clipPath>
    <clipPath id="clip-path-2">
      <path id="Path_850" data-name="Path 850" d="M-761,16861.465H3272.185V-368H-761Z" transform="translate(761 368)" fill="#153566"/>
    </clipPath>
    <clipPath id="clip-path-3">
      <path id="Path_854" data-name="Path 854" d="M72.614-31.336h-.332a5.485,5.485,0,0,0-2.877.885l-1.439,1.107a4.821,4.821,0,0,0-3.873-1.992h-.332a5.485,5.485,0,0,0-2.877.885L50.371-22.815H46.387v2.1H59.666l11.066-8.078a2.644,2.644,0,0,1,1.549-.553h.332a2.74,2.74,0,0,1,2.767,2.767,2.67,2.67,0,0,1-.775,1.881L64.314-14.4A7.453,7.453,0,0,1,59-12.192H37.534l-6.75,4.426L32-5.995l6.2-4.094H59a9.636,9.636,0,0,0,6.861-2.877L76.155-23.258a4.855,4.855,0,0,0,1.439-3.43A4.9,4.9,0,0,0,72.614-31.336ZM59-22.815h-4.98L62.1-28.68a2.644,2.644,0,0,1,1.549-.553h.443a2.889,2.889,0,0,1,2.213,1.107Z" transform="translate(-30.784 31.336)" fill="#153566"/>
    </clipPath>
    <clipPath id="clip-path-5">
      <path id="Path_857" data-name="Path 857" d="M50.613-24.844a2.693,2.693,0,0,1-2.656,2.656H39.879v2.1h8.078a4.912,4.912,0,0,0,4.869-4.869,4.912,4.912,0,0,0-4.869-4.869H37.445L23.28-20.971,24.387-19.2,38-27.611h9.849A2.888,2.888,0,0,1,50.613-24.844Z" transform="translate(-23.28 29.824)" fill="#153566" clip-rule="evenodd"/>
    </clipPath>
    <clipPath id="clip-path-7">
      <path id="Path_860" data-name="Path 860" d="M27.872-35.144h2.1v2.1h-2.1Z" transform="translate(-27.872 35.144)" fill="#fe7678" clip-rule="evenodd"/>
    </clipPath>
    <clipPath id="clip-path-8">
      <path id="Path_859" data-name="Path 859" d="M-761,16861.465H3272.185V-368H-761Z" transform="translate(761 368)" fill="#fe7678"/>
    </clipPath>
    <clipPath id="clip-path-9">
      <path id="Path_863" data-name="Path 863" d="M27.872-32.96h2.1v2.1h-2.1Z" transform="translate(-27.872 32.96)" fill="#fe7678" clip-rule="evenodd"/>
    </clipPath>
    <clipPath id="clip-path-11">
      <path id="Path_866" data-name="Path 866" d="M28.936-34.08h2.1v2.1h-2.1Z" transform="translate(-28.936 34.08)" fill="#fe7678" clip-rule="evenodd"/>
    </clipPath>
    <clipPath id="clip-path-13">
      <path id="Path_869" data-name="Path 869" d="M26.808-34.08h2.1v2.1h-2.1Z" transform="translate(-26.808 34.08)" fill="#fe7678" clip-rule="evenodd"/>
    </clipPath>
    <clipPath id="clip-path-15">
      <path id="Path_872" data-name="Path 872" d="M24.064-50.88h2.1v2.1h-2.1Z" transform="translate(-24.064 50.88)" fill="#fe7678" clip-rule="evenodd"/>
    </clipPath>
    <clipPath id="clip-path-17">
      <path id="Path_875" data-name="Path 875" d="M24.064-48.7h2.1v2.1h-2.1Z" transform="translate(-24.064 48.696)" fill="#fe7678" clip-rule="evenodd"/>
    </clipPath>
    <clipPath id="clip-path-19">
      <path id="Path_878" data-name="Path 878" d="M25.184-49.76h2.1v2.1h-2.1Z" transform="translate(-25.184 49.76)" fill="#fe7678" clip-rule="evenodd"/>
    </clipPath>
    <clipPath id="clip-path-21">
      <path id="Path_881" data-name="Path 881" d="M23-49.76h2.1v2.1H23Z" transform="translate(-23 49.76)" fill="#fe7678" clip-rule="evenodd"/>
    </clipPath>
    <clipPath id="clip-path-23">
      <path id="Path_884" data-name="Path 884" d="M54.416-43.824h2.1v2.1h-2.1Z" transform="translate(-54.416 43.824)" fill="#fe7678" clip-rule="evenodd"/>
    </clipPath>
    <clipPath id="clip-path-25">
      <path id="Path_887" data-name="Path 887" d="M54.416-41.64h2.1v2.1h-2.1Z" transform="translate(-54.416 41.64)" fill="#fe7678" clip-rule="evenodd"/>
    </clipPath>
    <clipPath id="clip-path-27">
      <path id="Path_890" data-name="Path 890" d="M55.536-42.76h2.1v2.1h-2.1Z" transform="translate(-55.536 42.76)" fill="#fe7678" clip-rule="evenodd"/>
    </clipPath>
    <clipPath id="clip-path-29">
      <path id="Path_893" data-name="Path 893" d="M53.352-42.76h2.1v2.1h-2.1Z" transform="translate(-53.352 42.76)" fill="#fe7678" clip-rule="evenodd"/>
    </clipPath>
  </defs>
  <g id="Group_2153" data-name="Group 2153" transform="translate(12.394)" clip-path="url(#clip-path)">
    <g id="Group_2152" data-name="Group 2152" transform="translate(-1561.643 -624.442)" clip-path="url(#clip-path-2)">
      <path id="Path_849" data-name="Path 849" d="M24.272-57H84.756V3.484H24.272Z" transform="translate(1527.491 671.562)" fill="#153566"/>
    </g>
  </g>
  <g id="Group_2155" data-name="Group 2155" transform="translate(15.382 40.834)" clip-path="url(#clip-path-3)">
    <g id="Group_2154" data-name="Group 2154" transform="translate(-1564.631 -665.276)" clip-path="url(#clip-path-2)">
      <path id="Path_852" data-name="Path 852" d="M25.784-36.336h66.57v45.1H25.784Z" transform="translate(1528.966 691.732)" fill="#153566"/>
    </g>
  </g>
  <g id="Group_2157" data-name="Group 2157" transform="translate(0.553 43.822)" clip-path="url(#clip-path-5)">
    <g id="Group_2156" data-name="Group 2156" transform="translate(-1549.802 -668.264)" clip-path="url(#clip-path-2)">
      <path id="Path_855" data-name="Path 855" d="M18.28-34.824H67.587V-4.44H18.28Z" transform="translate(1521.642 693.207)" fill="#153566"/>
    </g>
  </g>
  <g id="Group_2159" data-name="Group 2159" transform="translate(9.627 33.309)" clip-path="url(#clip-path-7)">
    <g id="Group_2158" data-name="Group 2158" transform="translate(-1558.876 -657.751)" clip-path="url(#clip-path-8)">
      <path id="Path_858" data-name="Path 858" d="M22.872-40.144H44.735v21.863H22.872Z" transform="translate(1526.124 688.015)" fill="#fe7678"/>
    </g>
  </g>
  <g id="Group_2161" data-name="Group 2161" transform="translate(9.627 37.625)" clip-path="url(#clip-path-9)">
    <g id="Group_2160" data-name="Group 2160" transform="translate(-1558.876 -662.067)" clip-path="url(#clip-path-8)">
      <path id="Path_861" data-name="Path 861" d="M22.872-37.96H44.735V-16.1H22.872Z" transform="translate(1526.124 690.146)" fill="#fe7678"/>
    </g>
  </g>
  <g id="Group_2163" data-name="Group 2163" transform="translate(11.73 35.411)" clip-path="url(#clip-path-11)">
    <g id="Group_2162" data-name="Group 2162" transform="translate(-1560.979 -659.854)" clip-path="url(#clip-path-8)">
      <path id="Path_864" data-name="Path 864" d="M23.936-39.08H45.8v21.863H23.936Z" transform="translate(1527.163 689.053)" fill="#fe7678"/>
    </g>
  </g>
  <g id="Group_2165" data-name="Group 2165" transform="translate(7.525 35.411)" clip-path="url(#clip-path-13)">
    <g id="Group_2164" data-name="Group 2164" transform="translate(-1556.774 -659.854)" clip-path="url(#clip-path-8)">
      <path id="Path_867" data-name="Path 867" d="M21.808-39.08H43.671v21.863H21.808Z" transform="translate(1525.086 689.053)" fill="#fe7678"/>
    </g>
  </g>
  <g id="Group_2167" data-name="Group 2167" transform="translate(2.103 2.213)" clip-path="url(#clip-path-15)">
    <g id="Group_2166" data-name="Group 2166" transform="translate(-1551.352 -626.656)" clip-path="url(#clip-path-8)">
      <path id="Path_870" data-name="Path 870" d="M19.064-55.88H40.927v21.863H19.064Z" transform="translate(1522.407 672.655)" fill="#fe7678"/>
    </g>
  </g>
  <g id="Group_2169" data-name="Group 2169" transform="translate(2.103 6.529)" clip-path="url(#clip-path-17)">
    <g id="Group_2168" data-name="Group 2168" transform="translate(-1551.352 -630.971)" clip-path="url(#clip-path-8)">
      <path id="Path_873" data-name="Path 873" d="M19.064-53.7H40.927v21.863H19.064Z" transform="translate(1522.407 674.787)" fill="#fe7678"/>
    </g>
  </g>
  <g id="Group_2171" data-name="Group 2171" transform="translate(4.316 4.426)" clip-path="url(#clip-path-19)">
    <g id="Group_2170" data-name="Group 2170" transform="translate(-1553.565 -628.869)" clip-path="url(#clip-path-8)">
      <path id="Path_876" data-name="Path 876" d="M20.184-54.76H42.047V-32.9H20.184Z" transform="translate(1523.5 673.748)" fill="#fe7678"/>
    </g>
  </g>
  <g id="Group_2173" data-name="Group 2173" transform="translate(0 4.426)" clip-path="url(#clip-path-21)">
    <g id="Group_2172" data-name="Group 2172" transform="translate(-1549.249 -628.869)" clip-path="url(#clip-path-8)">
      <path id="Path_879" data-name="Path 879" d="M18-54.76H39.863V-32.9H18Z" transform="translate(1521.369 673.748)" fill="#fe7678"/>
    </g>
  </g>
  <g id="Group_2175" data-name="Group 2175" transform="translate(62.081 16.156)" clip-path="url(#clip-path-23)">
    <g id="Group_2174" data-name="Group 2174" transform="translate(-1611.33 -640.599)" clip-path="url(#clip-path-8)">
      <path id="Path_882" data-name="Path 882" d="M49.416-48.824H71.279v21.863H49.416Z" transform="translate(1552.033 679.542)" fill="#fe7678"/>
    </g>
  </g>
  <g id="Group_2177" data-name="Group 2177" transform="translate(62.081 20.472)" clip-path="url(#clip-path-25)">
    <g id="Group_2176" data-name="Group 2176" transform="translate(-1611.33 -644.914)" clip-path="url(#clip-path-8)">
      <path id="Path_885" data-name="Path 885" d="M49.416-46.64H71.279v21.863H49.416Z" transform="translate(1552.033 681.674)" fill="#fe7678"/>
    </g>
  </g>
  <g id="Group_2179" data-name="Group 2179" transform="translate(64.294 18.259)" clip-path="url(#clip-path-27)">
    <g id="Group_2178" data-name="Group 2178" transform="translate(-1613.543 -642.701)" clip-path="url(#clip-path-8)">
      <path id="Path_888" data-name="Path 888" d="M50.536-47.76H72.4V-25.9H50.536Z" transform="translate(1553.127 680.581)" fill="#fe7678"/>
    </g>
  </g>
  <g id="Group_2181" data-name="Group 2181" transform="translate(59.978 18.259)" clip-path="url(#clip-path-29)">
    <g id="Group_2180" data-name="Group 2180" transform="translate(-1609.227 -642.701)" clip-path="url(#clip-path-8)">
      <path id="Path_891" data-name="Path 891" d="M48.352-47.76H70.215V-25.9H48.352Z" transform="translate(1550.995 680.581)" fill="#fe7678"/>
    </g>
  </g>
</svg>
