<svg id="Group_2638" data-name="Group 2638" xmlns="http://www.w3.org/2000/svg" xmlns:xlink="http://www.w3.org/1999/xlink" width="78.198" height="51.638" viewBox="0 0 78.198 51.638">
  <defs>
    <clipPath id="clip-path">
      <path id="Path_1324" data-name="Path 1324" d="M78.2-28.552V12.3H4.119A4.12,4.12,0,0,1,0,8.179V-28.552ZM18.914-23.32A15.208,15.208,0,0,0,3.7-8.115,15.208,15.208,0,0,0,18.914,7.091,15.208,15.208,0,0,0,34.125-8.115,15.209,15.209,0,0,0,18.914-23.32Zm-4.563,8.445v2.014l.355.06a5.583,5.583,0,0,1,1.706.655,5.474,5.474,0,0,1,1.948,1.888,5.568,5.568,0,0,1,1.96-1.888,5.708,5.708,0,0,1,1.776-.667h0v-2.061h3.575v2.555l.31.171a5.82,5.82,0,0,1,1.145.9A5.416,5.416,0,0,1,28.782-7.28a5.431,5.431,0,0,1-1.649,3.972,5.733,5.733,0,0,1-1.454,1.066h0V.313H22.1V-1.652H19.064V-7.43H22.4v2.383h.745l.228-.01A2.132,2.132,0,0,0,24.737-5.7,2.135,2.135,0,0,0,25.4-7.281a2.133,2.133,0,0,0-.667-1.59,2.217,2.217,0,0,0-1.591-.649,2.238,2.238,0,0,0-1.954,1.132h0l-2.824-1.626L15.543-8.389l-.116-.185a2.215,2.215,0,0,0-1.839-.947A2.217,2.217,0,0,0,12-8.871a2.119,2.119,0,0,0-.667,1.584A2.148,2.148,0,0,0,12-5.7a2.151,2.151,0,0,0,1.591.655h.7V-7.43h3.4v5.778H14.351V.254H10.776V-2.4l-.307-.191a5.811,5.811,0,0,1-.861-.714A5.416,5.416,0,0,1,7.951-7.281a5.45,5.45,0,0,1,1.656-3.973,5.938,5.938,0,0,1,1.168-.911h0v-2.71Zm30.425.666-6.857.042L36.182-.252l2.634-.017.757-6.123,4.242-.026.3-2.441-4.242.026.389-2.907,4.223-.026Zm5.095-.032-2.557.016L45.521-.309l2.5-.016Zm14.122-.088-2.557.016-1.2,9.457L55.12-14.273l-2.286.014L51.082-.345l2.5-.016L54.8-9.934,59.972-.4,62.2-.414Zm10.265-.063-7.884.049L66.059-11.9l4.32-.026L64.909-.43l7.942-.049.315-2.442-4.378.027ZM28.72-16.7a1.315,1.315,0,0,1,1.315,1.314,1.315,1.315,0,0,1-1.315,1.314,1.315,1.315,0,0,1-1.315-1.314A1.315,1.315,0,0,1,28.72-16.7Zm0,.3a1.012,1.012,0,0,0-1.011,1.01,1.012,1.012,0,0,0,1.011,1.01,1.012,1.012,0,0,0,1.011-1.01A1.011,1.011,0,0,0,28.72-16.4Zm.014.361a.9.9,0,0,1,.291.034.285.285,0,0,1,.145.119.362.362,0,0,1,.055.2.333.333,0,0,1-.083.232.4.4,0,0,1-.247.116.566.566,0,0,1,.135.105,1.462,1.462,0,0,1,.143.2h0l.152.243h-.3l-.182-.272-.058-.085a.918.918,0,0,0-.075-.1.186.186,0,0,0-.076-.052.428.428,0,0,0-.127-.014h-.051v.521H28.2v-1.248Zm-.279.211v.317h.268a.639.639,0,0,0,.145-.014.139.139,0,0,0,.071-.053.161.161,0,0,0,.026-.094.151.151,0,0,0-.034-.1.156.156,0,0,0-.095-.049c-.014,0-.045,0-.1,0h-.285Z" transform="translate(0 28.552)" fill="#153566"/>
    </clipPath>
    <clipPath id="clip-path-2">
      <path id="Path_1323" data-name="Path 1323" d="M-587,647.531H445.5V-1012H-587Z" transform="translate(587 1012)" fill="#153566"/>
    </clipPath>
    <clipPath id="clip-path-3">
      <path id="Path_1327" data-name="Path 1327" d="M0-28.029l74.962-4.247v4.247Z" transform="translate(0 32.276)" fill="#fe7678"/>
    </clipPath>
    <clipPath id="clip-path-4">
      <path id="Path_1326" data-name="Path 1326" d="M-587,647.531H445.5V-1012H-587Z" transform="translate(587 1012)" fill="#fe7678"/>
    </clipPath>
    <clipPath id="clip-path-5">
      <path id="Path_1330" data-name="Path 1330" d="M0-27.506,69.5-36v4.23Z" transform="translate(0 36)" fill="#fe7678"/>
    </clipPath>
  </defs>
  <g id="Group_2548" data-name="Group 2548" transform="translate(0 10.786)" clip-path="url(#clip-path)">
    <g id="Group_2547" data-name="Group 2547" transform="translate(-850.039 -1424.139)" clip-path="url(#clip-path-2)">
      <path id="Path_1322" data-name="Path 1322" d="M-5-33.552H87.679V21.781H-5Z" transform="translate(847.798 1450.45)" fill="#153566"/>
    </g>
  </g>
  <g id="Group_2550" data-name="Group 2550" transform="translate(0 5.393)" clip-path="url(#clip-path-3)">
    <g id="Group_2549" data-name="Group 2549" transform="translate(-850.039 -1418.745)" clip-path="url(#clip-path-4)">
      <path id="Path_1325" data-name="Path 1325" d="M-5-37.276H84.443v18.728H-5Z" transform="translate(847.798 1448.781)" fill="#fe7678"/>
    </g>
  </g>
  <g id="Group_2552" data-name="Group 2552" clip-path="url(#clip-path-5)">
    <g id="Group_2551" data-name="Group 2551" transform="translate(-850.039 -1413.353)" clip-path="url(#clip-path-4)">
      <path id="Path_1328" data-name="Path 1328" d="M-5-41H78.983v22.975H-5Z" transform="translate(847.798 1447.112)" fill="#fe7678"/>
    </g>
  </g>
</svg>
