<svg id="Group_2636" data-name="Group 2636" xmlns="http://www.w3.org/2000/svg" xmlns:xlink="http://www.w3.org/1999/xlink" width="63.714" height="63.822" viewBox="0 0 63.714 63.822">
  <defs>
    <clipPath id="clip-path">
      <path id="Path_1297" data-name="Path 1297" d="M62.824-31.246a3.013,3.013,0,0,1-3.019-3.019.966.966,0,0,0-.97-.97.966.966,0,0,0-.97.97,3.013,3.013,0,0,1-3.019,3.019.966.966,0,0,0-.97.97.966.966,0,0,0,.97.97,3.013,3.013,0,0,1,3.019,3.019.966.966,0,0,0,.97.97.966.966,0,0,0,.97-.97,3.013,3.013,0,0,1,3.019-3.019.966.966,0,0,0,.97-.97A.966.966,0,0,0,62.824-31.246ZM58.835-29.2a5.111,5.111,0,0,0-1.078-1.078,5.111,5.111,0,0,0,1.078-1.078,5.111,5.111,0,0,0,1.078,1.078A5.111,5.111,0,0,0,58.835-29.2ZM9.028-31.246a3.013,3.013,0,0,1-3.019-3.019.966.966,0,0,0-.97-.97.966.966,0,0,0-.97.97A3.013,3.013,0,0,1,1.05-31.246a.966.966,0,0,0-.97.97.966.966,0,0,0,.97.97,3.013,3.013,0,0,1,3.019,3.019.966.966,0,0,0,.97.97.966.966,0,0,0,.97-.97,3.013,3.013,0,0,1,3.019-3.019.966.966,0,0,0,.97-.97C9.89-30.815,9.567-31.246,9.028-31.246ZM5.039-29.2a5.111,5.111,0,0,0-1.078-1.078,5.111,5.111,0,0,0,1.078-1.078,5.111,5.111,0,0,0,1.078,1.078A5.111,5.111,0,0,0,5.039-29.2ZM36.95-43.213a4.1,4.1,0,0,1-4.1-4.1.966.966,0,0,0-.97-.97.966.966,0,0,0-.97.97,4.1,4.1,0,0,1-4.1,4.1.966.966,0,0,0-.97.97.966.966,0,0,0,.97.97,4.1,4.1,0,0,1,4.1,4.1.966.966,0,0,0,.97.97.966.966,0,0,0,.97-.97,4.1,4.1,0,0,1,4.1-4.1.966.966,0,0,0,.97-.97A1.042,1.042,0,0,0,36.95-43.213Zm-5.067,2.8a5.943,5.943,0,0,0-1.833-1.833,5.944,5.944,0,0,0,1.833-1.833,5.944,5.944,0,0,0,1.833,1.833A5.943,5.943,0,0,0,31.883-40.41Z" transform="translate(-0.08 48.28)" fill="#fe7678"/>
    </clipPath>
    <clipPath id="clip-path-2">
      <path id="Path_1296" data-name="Path 1296" d="M-108,525.335H852.83V-1019H-108Z" transform="translate(108 1019)" fill="#fe7678"/>
    </clipPath>
    <clipPath id="clip-path-3">
      <path id="Path_1300" data-name="Path 1300" d="M49.366-21.837,45.7-32.186a1.983,1.983,0,0,0-1.833-1.294H15.623a1.983,1.983,0,0,0-1.833,1.294L10.124-21.837a.95.95,0,0,0,.862,1.294H48.4a.814.814,0,0,0,.755-.431A.838.838,0,0,0,49.366-21.837Zm-36.978-.539,3.234-9.056H44.084l3.234,9.056ZM47.749-9.439c-3.342,0-5.929,1.725-5.929,3.881s2.587,3.881,5.929,3.881S53.678-3.4,53.678-5.558,51.091-9.439,47.749-9.439Zm0,5.929c-2.372,0-4.1-1.078-4.1-2.048s1.725-2.048,4.1-2.048,4.1,1.078,4.1,2.048S50.013-3.51,47.749-3.51Zm-35.9-5.929c-3.342,0-5.929,1.725-5.929,3.881s2.587,3.881,5.929,3.881S17.779-3.4,17.779-5.558,15.191-9.439,11.849-9.439Zm0,5.929c-2.264,0-4.1-1.078-4.1-2.048s1.725-2.048,4.1-2.048,4.1,1.078,4.1,2.048S14.113-3.51,11.849-3.51Z" transform="translate(-5.92 33.48)" fill="#153566"/>
    </clipPath>
    <clipPath id="clip-path-4">
      <path id="Path_1299" data-name="Path 1299" d="M-108,525.335H852.83V-1019H-108Z" transform="translate(108 1019)" fill="#153566"/>
    </clipPath>
    <clipPath id="clip-path-5">
      <path id="Path_1303" data-name="Path 1303" d="M61.523-22.7H56.564a.915.915,0,0,0-.862.755l-.647,2.587L50.419-32.406a4.9,4.9,0,0,0-4.636-3.234H17.43a4.9,4.9,0,0,0-4.636,3.234L8.266-19.361,7.62-21.949a.915.915,0,0,0-.862-.755H1.69a.966.966,0,0,0-.97.97v3.989a.966.966,0,0,0,.97.97H6.865l-3.234,4.42a5.422,5.422,0,0,0-.862,2.911V2.2A4.905,4.905,0,0,0,4.817,6.189h0V9.208a1.932,1.932,0,0,0,1.941,1.941h5.929a1.932,1.932,0,0,0,1.941-1.941V7.159H48.694V9.208a1.932,1.932,0,0,0,1.941,1.941h5.929A1.932,1.932,0,0,0,58.5,9.208V6.189h0A5.049,5.049,0,0,0,60.553,2.2V-9.443a4.73,4.73,0,0,0-.97-2.911l-3.234-4.42h5.175a.966.966,0,0,0,.97-.97v-3.989A1.138,1.138,0,0,0,61.523-22.7ZM2.661-18.714V-20.87H6l.539,2.156ZM12.687,9.208h0l-6.037.108a.106.106,0,0,1-.108-.108V7.159h6.145Zm43.877,0h0l-6.037.108a.106.106,0,0,1-.108-.108V7.159h6.145ZM55.486,5.219H7.62A3.008,3.008,0,0,1,4.709,3.063H58.4A2.916,2.916,0,0,1,55.486,5.219ZM39.638-4.807v2.156H23.575V-4.807ZM23.683-6.748A3.144,3.144,0,0,1,26.594-8.9h9.918a3.008,3.008,0,0,1,2.911,2.156ZM39.638-.818V1.338H23.575V-.818ZM57.965-11.276A3.579,3.579,0,0,1,58.5-9.551V1.23H41.471V-5.777a4.946,4.946,0,0,0-4.959-4.959H26.594a4.946,4.946,0,0,0-4.959,4.959V1.23H4.6V-9.443a2.983,2.983,0,0,1,.539-1.725l3.989-5.5h34.39a.966.966,0,0,0,.97-.97.966.966,0,0,0-.97-.97H9.991l4.636-13.045A3.155,3.155,0,0,1,17.538-33.7H45.783a3.155,3.155,0,0,1,2.911,2.048L53.33-18.606H47.724a.966.966,0,0,0-.97.97.966.966,0,0,0,.97.97h6.468Zm2.587-7.439H56.672l.539-2.156h3.342Z" transform="translate(-0.72 35.64)" fill="#153566"/>
    </clipPath>
    <clipPath id="clip-path-7">
      <path id="Path_1306" data-name="Path 1306" d="M14.34-17.88H8.41c-.539,0-.97.6-.97,1.348s.431,1.348.97,1.348H14.34c.539,0,.97-.6.97-1.348C15.2-17.281,14.771-17.88,14.34-17.88Zm35.792,0H44.2c-.539,0-.97.6-.97,1.348s.431,1.348.97,1.348h5.929c.539,0,.97-.6.97-1.348S50.671-17.88,50.132-17.88Z" transform="translate(-7.44 17.88)" fill="#153566"/>
    </clipPath>
  </defs>
  <g id="Group_2528" data-name="Group 2528" clip-path="url(#clip-path)">
    <g id="Group_2527" data-name="Group 2527" transform="translate(-145.647 -1308.13)" clip-path="url(#clip-path-2)">
      <path id="Path_1295" data-name="Path 1295" d="M-4.92-53.28H72.27v36.439H-4.92Z" transform="translate(143.829 1354.672)" fill="#fe7678"/>
    </g>
  </g>
  <g id="Group_2530" data-name="Group 2530" transform="translate(7.87 19.944)" clip-path="url(#clip-path-3)">
    <g id="Group_2529" data-name="Group 2529" transform="translate(-153.517 -1328.074)" clip-path="url(#clip-path-4)">
      <path id="Path_1298" data-name="Path 1298" d="M.92-38.48H62.154V6.8H.92Z" transform="translate(145.859 1359.816)" fill="#153566"/>
    </g>
  </g>
  <g id="Group_2532" data-name="Group 2532" transform="translate(0.862 17.034)" clip-path="url(#clip-path-5)">
    <g id="Group_2531" data-name="Group 2531" transform="translate(-146.51 -1325.163)" clip-path="url(#clip-path-4)">
      <path id="Path_1301" data-name="Path 1301" d="M-4.28-40.64H70.969V19.624H-4.28Z" transform="translate(144.052 1359.066)" fill="#153566"/>
    </g>
  </g>
  <g id="Group_2534" data-name="Group 2534" transform="translate(9.918 40.967)" clip-path="url(#clip-path-7)">
    <g id="Group_2533" data-name="Group 2533" transform="translate(-155.565 -1349.096)" clip-path="url(#clip-path-4)">
      <path id="Path_1304" data-name="Path 1304" d="M2.44-22.88H59.578V-6.709H2.44Z" transform="translate(146.388 1365.239)" fill="#153566"/>
    </g>
  </g>
</svg>
