<svg id="Group_2628" data-name="Group 2628" xmlns="http://www.w3.org/2000/svg" xmlns:xlink="http://www.w3.org/1999/xlink" width="43.972" height="65.615" viewBox="0 0 43.972 65.615">
  <defs>
    <clipPath id="clip-path">
      <path id="Path_782" data-name="Path 782" d="M40.98-39.25A11.647,11.647,0,0,1,52.627-27.6,11.647,11.647,0,0,1,40.98-15.957,11.647,11.647,0,0,1,29.333-27.6,11.647,11.647,0,0,1,40.98-39.25Zm-3.627,4.786H34.125v2.448a5.374,5.374,0,0,0-1.055.823,4.923,4.923,0,0,0-1.5,3.589,4.893,4.893,0,0,0,1.5,3.589,5.014,5.014,0,0,0,1.055.818v2.4h3.229v-1.722h3.013v-5.22H37.3v2.152h-.635a1.941,1.941,0,0,1-1.437-.592,1.94,1.94,0,0,1-.6-1.431,1.914,1.914,0,0,1,.6-1.431,2,2,0,0,1,1.437-.586A2,2,0,0,1,38.429-28.6l2.551-1.469L43.531-28.6A2.021,2.021,0,0,1,45.3-29.627a2,2,0,0,1,1.437.586,1.926,1.926,0,0,1,.6,1.437,1.929,1.929,0,0,1-.6,1.426,1.942,1.942,0,0,1-1.437.592h-.673v-2.152H41.61v5.219h2.744v1.776h3.229v-2.309a5.183,5.183,0,0,0,1.313-.963,4.909,4.909,0,0,0,1.49-3.589,4.894,4.894,0,0,0-1.5-3.589,5.184,5.184,0,0,0-1.313-.963v-2.308H44.348V-32.6a5.163,5.163,0,0,0-1.6.6,5.029,5.029,0,0,0-1.77,1.706A4.949,4.949,0,0,0,39.215-32a5,5,0,0,0-1.862-.646Z" transform="translate(-29.333 39.25)" fill="#fe7678" clip-rule="evenodd"/>
    </clipPath>
    <clipPath id="clip-path-2">
      <path id="Path_781" data-name="Path 781" d="M-965,16648.424H2973.839V-178H-965Z" transform="translate(965 178)" fill="#fe7678"/>
    </clipPath>
    <clipPath id="clip-path-3">
      <path id="Path_785" data-name="Path 785" d="M67.344-35.81l-2.583-5.643v-5.256A5.3,5.3,0,0,0,59.469-52H31.953a5.3,5.3,0,0,0-5.292,5.292v5.259l-2.616,5.718a5.386,5.386,0,0,0,.324,4.4,4.91,4.91,0,0,0,2.292,2.159v37.5a5.3,5.3,0,0,0,5.292,5.292H59.469a5.3,5.3,0,0,0,5.292-5.292v-37.5a4.911,4.911,0,0,0,2.292-2.159A5.419,5.419,0,0,0,67.344-35.81ZM31.953-49.883H59.469a3.179,3.179,0,0,1,3.175,3.175v2.117H28.778v-2.117A3.179,3.179,0,0,1,31.953-49.883ZM62.644,3.032H28.778V-28.717a5.288,5.288,0,0,0,4.233-2.12,5.288,5.288,0,0,0,4.233,2.12,5.288,5.288,0,0,0,4.233-2.12,5.288,5.288,0,0,0,4.233,2.12,5.288,5.288,0,0,0,4.233-2.12,5.288,5.288,0,0,0,4.233,2.12,5.288,5.288,0,0,0,4.233-2.12,5.288,5.288,0,0,0,4.233,2.12ZM41.354-42.475l-.928,8.35v.116H40.42a3.179,3.179,0,0,1-3.175,3.175,3.173,3.173,0,0,1-3.166-3.1l1.9-8.546Zm6.585,0,.944,8.5a3.177,3.177,0,0,1-3.172,3.144,3.177,3.177,0,0,1-3.172-3.144l.944-8.5Zm9.405,8.546a3.173,3.173,0,0,1-3.166,3.1A3.179,3.179,0,0,1,51-34.009l-.934-8.466h5.377ZM26.231-32.34A3.244,3.244,0,0,1,26-34.929l3.455-7.546h4.351l-1.831,8.237,0,.23h-.02a3.179,3.179,0,0,1-3.175,3.175,3.143,3.143,0,0,1-.728-.084A2.786,2.786,0,0,1,26.231-32.34ZM59.469,11.5H31.953a3.179,3.179,0,0,1-3.175-3.175V5.149H62.644V8.324A3.179,3.179,0,0,1,59.469,11.5ZM65.191-32.34a2.786,2.786,0,0,1-1.82,1.422,3.127,3.127,0,0,1-.727.084,3.179,3.179,0,0,1-3.175-3.175l-1.858-8.466h4.355l3.423,7.467A3.265,3.265,0,0,1,65.191-32.34Z" transform="translate(-23.722 52)" fill="#153566"/>
    </clipPath>
    <clipPath id="clip-path-4">
      <path id="Path_784" data-name="Path 784" d="M-965,16648.424H2973.839V-178H-965Z" transform="translate(965 178)" fill="#153566"/>
    </clipPath>
    <clipPath id="clip-path-5">
      <path id="Path_788" data-name="Path 788" d="M27.987-25.677H55.5v2.117H27.987Z" transform="translate(-27.987 25.677)" fill="#153566"/>
    </clipPath>
    <clipPath id="clip-path-7">
      <path id="Path_791" data-name="Path 791" d="M31.826-21.29h12.7v2.117h-12.7Z" transform="translate(-31.826 21.29)" fill="#153566"/>
    </clipPath>
  </defs>
  <g id="Group_2103" data-name="Group 2103" transform="translate(10.83 24.606)" clip-path="url(#clip-path)">
    <g id="Group_2102" data-name="Group 2102" transform="translate(-1918.921 -267.768)" clip-path="url(#clip-path-2)">
      <path id="Path_780" data-name="Path 780" d="M24.333-44.25H66.925V-1.658H24.333Z" transform="translate(1884.939 302.368)" fill="#fe7678"/>
    </g>
  </g>
  <g id="Group_2105" data-name="Group 2105" clip-path="url(#clip-path-3)">
    <g id="Group_2104" data-name="Group 2104" transform="translate(-1908.092 -243.162)" clip-path="url(#clip-path-4)">
      <path id="Path_783" data-name="Path 783" d="M18.722-57h63.27V27.914H18.722Z" transform="translate(1879.721 290.513)" fill="#153566"/>
    </g>
  </g>
  <g id="Group_2107" data-name="Group 2107" transform="translate(8.231 50.799)" clip-path="url(#clip-path-5)">
    <g id="Group_2106" data-name="Group 2106" transform="translate(-1916.323 -293.961)" clip-path="url(#clip-path-4)">
      <path id="Path_786" data-name="Path 786" d="M22.987-30.677H69.8V-9.262H22.987Z" transform="translate(1883.687 314.989)" fill="#153566"/>
    </g>
  </g>
  <g id="Group_2109" data-name="Group 2109" transform="translate(15.64 59.265)" clip-path="url(#clip-path-7)">
    <g id="Group_2108" data-name="Group 2108" transform="translate(-1923.732 -302.427)" clip-path="url(#clip-path-4)">
      <path id="Path_789" data-name="Path 789" d="M26.826-26.29h32V-4.875h-32Z" transform="translate(1887.256 319.068)" fill="#153566"/>
    </g>
  </g>
</svg>
