<svg id="Group_2627" data-name="Group 2627" xmlns="http://www.w3.org/2000/svg" xmlns:xlink="http://www.w3.org/1999/xlink" width="69.246" height="64.779" viewBox="0 0 69.246 64.779">
  <defs>
    <clipPath id="clip-path">
      <path id="Path_776" data-name="Path 776" d="M84.324-39.381h-5.4v-4.468H83.4v-6.7H20.851v6.7h4.468v4.468h-5.4A2.425,2.425,0,0,0,17.5-36.959v2.974a2.425,2.425,0,0,0,2.422,2.422h5.3l-3.994,9.318a5.322,5.322,0,0,0,.449,5.038,5.311,5.311,0,0,0,3.643,2.329V6.411H21.039a2.425,2.425,0,0,0-2.422,2.422v2.974a2.425,2.425,0,0,0,2.422,2.422H83.207a2.425,2.425,0,0,0,2.422-2.422V8.833a2.425,2.425,0,0,0-2.422-2.422H78.928v-21.29a5.316,5.316,0,0,0,3.644-2.329,5.32,5.32,0,0,0,.448-5.036l-3.993-9.319h5.3a2.425,2.425,0,0,0,2.422-2.422v-2.974A2.425,2.425,0,0,0,84.324-39.381Zm-61.24-6.7H81.162v-2.234H23.084Zm9.222,27.97a3.1,3.1,0,0,1-.74-2.381l1.421-9.952h5.651l-.752,10.523a3.111,3.111,0,0,1-3.092,2.879h-.147A3.1,3.1,0,0,1,32.307-18.113Zm-8.766-.325a3.054,3.054,0,0,1-.261-2.927l3.892-9.082h3.56L29.367-20.9c-.006.04-.01.077-.015.116L29.2-19.706a3.112,3.112,0,0,1-3.068,2.662A3.053,3.053,0,0,1,23.54-18.438Zm4.012,3.424a5.377,5.377,0,0,0,2.833-1.926c.073.1.152.2.234.291s.192.172.284.263v22.8H27.552Zm-6.7,26.82V8.833a.189.189,0,0,1,.189-.189H30.9v3.351H21.039A.189.189,0,0,1,20.851,11.806Zm20.1-17.682H51.006V1.943H48.773V4.177h2.234v7.818H40.954ZM53.24,11.995V4.177h2.234V1.943H53.24V-5.875h4.468V-8.109H40.954v-3.351H63.292v3.351H61.058v2.234h2.234v17.87ZM38.721-13.693V11.995H33.136V-15.057a5.286,5.286,0,0,0,1.512.247H34.8A5.338,5.338,0,0,0,39.019-16.9c.1.134.212.262.327.387a5.357,5.357,0,0,0,3.9,1.7h.19a5.326,5.326,0,0,0,4.216-2.071,5.326,5.326,0,0,0,4.216,2.071h.5a5.326,5.326,0,0,0,4.216-2.071,5.33,5.33,0,0,0,4.217,2.071H61a5.355,5.355,0,0,0,3.9-1.7c.116-.125.225-.254.327-.387a5.343,5.343,0,0,0,4.226,2.086H69.6a5.306,5.306,0,0,0,1.512-.247V11.995H65.527V-13.693Zm1.437-6.672.72-10.081h5.661v10.3a3.1,3.1,0,0,1-3.1,3.1h-.19a3.065,3.065,0,0,1-2.269-.987A3.067,3.067,0,0,1,40.157-20.366Zm8.615.222v-10.3h6.7v10.3a3.1,3.1,0,0,1-3.1,3.1h-.5A3.1,3.1,0,0,1,48.773-20.143Zm8.935,0v-10.3h5.661l.72,10.081a3.068,3.068,0,0,1-.823,2.334,3.064,3.064,0,0,1-2.27.988h-.19A3.1,3.1,0,0,1,57.708-20.143Zm14.232,2.03A3.1,3.1,0,0,1,69.6-17.044h-.147a3.112,3.112,0,0,1-3.092-2.879l-.751-10.523h5.651l1.416,9.907A3.1,3.1,0,0,1,71.94-18.113ZM83.4,8.833v2.974a.189.189,0,0,1-.189.189H73.344V8.644h9.863A.189.189,0,0,1,83.4,8.833ZM73.344,6.411v-22.8c.092-.091.2-.165.284-.263s.161-.191.234-.291a5.382,5.382,0,0,0,2.833,1.926V6.411Zm7.362-24.848a3.053,3.053,0,0,1-2.589,1.394,3.113,3.113,0,0,1-3.068-2.662l-.163-1.135c0-.019,0-.037-.007-.057l-1.365-9.548h3.56l3.892,9.083A3.052,3.052,0,0,1,80.706-18.438Zm3.807-15.548a.189.189,0,0,1-.189.189h-12.1v1.117H32.019V-33.8h-12.1a.189.189,0,0,1-.189-.189v-2.974a.189.189,0,0,1,.189-.189h12.1v-2.234H27.552v-4.468H76.695v4.468H72.227v2.234h12.1a.189.189,0,0,1,.189.189Z" transform="translate(-17.5 50.55)" fill="#153566" clip-rule="evenodd"/>
    </clipPath>
    <clipPath id="clip-path-2">
      <path id="Path_775" data-name="Path 775" d="M-761,17232.281H3314.277V-177H-761Z" transform="translate(761 177)" fill="#153566"/>
    </clipPath>
    <clipPath id="clip-path-3">
      <path id="Path_779" data-name="Path 779" d="M66.654-48.313v15.636H24.212V-48.313ZM32.589-44.962H31.472l-.269.013A2.8,2.8,0,0,0,28.68-42.17a2.794,2.794,0,0,0,2.792,2.792h1.117l.128.015a.561.561,0,0,1,.431.544.56.56,0,0,1-.558.558H31.472l-.128-.015a.561.561,0,0,1-.431-.544h0v-.558H28.68v.558l.013.269a2.8,2.8,0,0,0,2.779,2.524h1.117l.269-.013a2.8,2.8,0,0,0,2.524-2.779,2.794,2.794,0,0,0-2.792-2.792H31.472l-.128-.015a.561.561,0,0,1-.431-.544.56.56,0,0,1,.558-.558h1.117l.128.015a.561.561,0,0,1,.431.544h0v.558h2.234v-.558l-.013-.269a2.8,2.8,0,0,0-2.779-2.524Zm7.26,0H37.615v8.935h2.234v-3.351h2.234v3.351h2.234v-8.935H42.082v3.351H39.849Zm10.052,0a3.355,3.355,0,0,0-3.351,3.351h0v2.234l.012.289A3.355,3.355,0,0,0,49.9-36.027a3.355,3.355,0,0,0,3.351-3.351h0v-2.234l-.012-.289A3.355,3.355,0,0,0,49.9-44.962Zm5.584,0h0v8.935h2.234v-3.351h1.675l.269-.013a2.8,2.8,0,0,0,2.524-2.779,2.794,2.794,0,0,0-2.792-2.792H55.485ZM49.9-42.728a1.117,1.117,0,0,1,1.117,1.117h0v2.234L51-39.2a1.118,1.118,0,0,1-1.1.936,1.117,1.117,0,0,1-1.117-1.117h0v-2.234l.015-.181A1.117,1.117,0,0,1,49.9-42.728Zm9.493,0a.56.56,0,0,1,.558.558.56.56,0,0,1-.558.558H57.719v-1.117Z" transform="translate(-24.212 48.313)" fill="#fe7678" clip-rule="evenodd"/>
    </clipPath>
    <clipPath id="clip-path-4">
      <path id="Path_778" data-name="Path 778" d="M-761,17232.281H3314.277V-177H-761Z" transform="translate(761 177)" fill="#fe7678"/>
    </clipPath>
  </defs>
  <g id="Group_2098" data-name="Group 2098" clip-path="url(#clip-path)">
    <g id="Group_2097" data-name="Group 2097" transform="translate(-1554.436 -252.483)" clip-path="url(#clip-path-2)">
      <path id="Path_774" data-name="Path 774" d="M12.5-55.55h89.214V29.2H12.5Z" transform="translate(1531.952 298.05)" fill="#153566"/>
    </g>
  </g>
  <g id="Group_2100" data-name="Group 2100" transform="translate(13.403 4.468)" clip-path="url(#clip-path-3)">
    <g id="Group_2099" data-name="Group 2099" transform="translate(-1567.838 -256.95)" clip-path="url(#clip-path-4)">
      <path id="Path_777" data-name="Path 777" d="M19.212-53.313H81.621v35.6H19.212Z" transform="translate(1538.643 300.28)" fill="#fe7678"/>
    </g>
  </g>
</svg>
