<svg xmlns="http://www.w3.org/2000/svg" width="36.297" height="37.971" viewBox="0 0 36.297 37.971">
  <g id="Group_19950" data-name="Group 19950" transform="translate(-1542 -26.016)">
    <g id="Group_19948" data-name="Group 19948" transform="translate(1542 26.016)">
      <path id="Path_4926" data-name="Path 4926" d="M35.434,27.892a18.324,18.324,0,0,1-2.32-2.468c-.436-.566-.835-1.129-1.188-1.673a1.106,1.106,0,1,0-1.857,1.2c.384.593.818,1.2,1.29,1.818a20.542,20.542,0,0,0,2.6,2.769.344.344,0,0,1,.1.4.356.356,0,0,1-.35.242H2.593a.359.359,0,0,1-.342-.222.353.353,0,0,1,.061-.4c2.078-2.331,4.68-5.823,5.279-9.219a21.927,21.927,0,0,0,.167-4.93,15.231,15.231,0,0,1,1-7.441,10.07,10.07,0,0,1,6.621-5.518,8.647,8.647,0,0,1,1.16-.258,1.107,1.107,0,0,0-.267-2.2,10.434,10.434,0,0,0-1.5.327A12.246,12.246,0,0,0,6.724,7.1,17.258,17.258,0,0,0,5.547,15.52a19.9,19.9,0,0,1-.135,4.447C4.9,22.853,2.547,25.982.66,28.1a2.585,2.585,0,0,0,1.933,4.3h8.938a6.551,6.551,0,0,0,12.953,0h9.223a2.585,2.585,0,0,0,1.727-4.51M18.008,35.757a4.345,4.345,0,0,1-4.194-3.231H22.2a4.345,4.345,0,0,1-4.194,3.231" fill="#fff"/>
    </g>
    <g id="Group_19949" data-name="Group 19949" transform="translate(1542 26.016)">
      <path id="Path_4926-2" data-name="Path 4926" d="M.864,27.893a18.324,18.324,0,0,0,2.32-2.468c.436-.566.835-1.129,1.188-1.673.332-.513.8-.888,1.316-.555s.7.561.363,1.074c-.384.593-.64,1.89-1.112,2.5a20.543,20.543,0,0,1-2.6,2.769.344.344,0,0,0-.1.4.356.356,0,0,0,.35.242H33.705a.359.359,0,0,0,.342-.222.353.353,0,0,0-.061-.4c-.361-.4-.737-.844-1.32-1.571a20.956,20.956,0,0,1-2.338-2.576,14.65,14.65,0,0,1-1.621-5.072,21.928,21.928,0,0,1-.167-4.93,15.232,15.232,0,0,0-1-7.441,10.07,10.07,0,0,0-6.621-5.518,8.647,8.647,0,0,0-1.16-.258,1.107,1.107,0,0,1,.267-2.2,10.434,10.434,0,0,1,1.5.327A12.246,12.246,0,0,1,29.574,7.1a17.258,17.258,0,0,1,1.177,8.421,19.9,19.9,0,0,0,.135,4.448c.509,2.885,2.865,6.015,4.752,8.132a2.585,2.585,0,0,1-1.933,4.3H24.767a6.551,6.551,0,0,1-12.953,0H2.591a2.585,2.585,0,0,1-1.727-4.51M18.29,35.758a4.345,4.345,0,0,0,4.194-3.231H14.1a4.345,4.345,0,0,0,4.194,3.231" transform="translate(-0.001 0)" fill="#fff"/>
    </g>
  </g>
</svg>
