<svg id="Group_2644" data-name="Group 2644" xmlns="http://www.w3.org/2000/svg" xmlns:xlink="http://www.w3.org/1999/xlink" width="102.219" height="62.453" viewBox="0 0 102.219 62.453">
  <defs>
    <clipPath id="clip-path">
      <path id="Path_1280" data-name="Path 1280" d="M45.093-7.663s-.075.336-.21.923c-.039.145-.084.308-.131.484s-.121.361-.189.56a8.333,8.333,0,0,1-.548,1.316q-.181.35-.377.729c-.141.244-.3.493-.454.752-.079.13-.16.261-.241.393l-.279.381c-.2.252-.379.525-.606.767a14.045,14.045,0,0,1-2.69,2.436l-.441.3-.414.252c-.24.153-.509.275-.757.406s-.511.265-.755.379l-.693.277c-.24.1-.429.147-.637.217l-.607.192-.606.186c-.145.035-.28.066-.409.091.227-.319.43-.6.633-.887.43-.622.917-1.265,1.206-1.76.161-.253.319-.5.477-.752l.271-.493a11.705,11.705,0,0,0,.686-1.433,18.977,18.977,0,0,0,.793-2.289,8.766,8.766,0,0,0,.222-.91,8.664,8.664,0,0,1,.075.949,11.165,11.165,0,0,1-.264,2.51c-.1.381-.2.789-.34,1.21l-.147.425-.079.216c-.042.1-.017.064-.025.1a.521.521,0,0,0-.008.082.362.362,0,0,0,.007.084.03.03,0,0,0,.015.009h.008l.009,0,.054-.038a.47.47,0,0,0,.064-.052.115.115,0,0,0,.024-.028l0,0L37.741.3l.35-.224a17.688,17.688,0,0,0,2.971-2.366c.227-.205.417-.438.627-.645L42-3.248l.277-.324c.182-.214.367-.42.537-.626s.31-.426.454-.627c.3-.4.537-.788.773-1.126.114-.17.233-.324.324-.478l.239-.426C44.915-7.371,45.093-7.663,45.093-7.663Zm12.035,0s.177.288.488.8c.072.129.151.271.24.426s.209.308.323.478c.237.338.47.729.773,1.126.145.2.3.409.454.627s.355.411.537.626l.279.324c.1.1.2.209.307.315.21.206.4.44.629.645A17.582,17.582,0,0,0,64.129.077L64.478.3c.016.013.005.008.011.013a.158.158,0,0,0,.024.028.47.47,0,0,0,.064.052l.054.038a.047.047,0,0,0,.019,0,.038.038,0,0,0,.015-.009.388.388,0,0,0,.005-.084.708.708,0,0,0-.007-.082c-.008-.032.015.005-.027-.1l-.079-.216a15.716,15.716,0,0,1-.487-1.635,11.244,11.244,0,0,1-.264-2.51,8.4,8.4,0,0,1,.076-.949,8.489,8.489,0,0,0,.221.91A18.976,18.976,0,0,0,64.9-1.947a11.905,11.905,0,0,0,.686,1.433l.271.493q.237.372.477.752c.289.495.777,1.138,1.208,1.76l.631.887c-.129-.025-.264-.056-.407-.091L67.156,3.1l-.606-.192c-.209-.07-.4-.114-.637-.217l-.694-.277c-.244-.114-.5-.252-.753-.379s-.519-.253-.757-.406l-.416-.252a14.337,14.337,0,0,1-3.131-2.736c-.228-.241-.409-.515-.6-.767-.094-.127-.186-.255-.28-.381s-.162-.263-.241-.393c-.158-.259-.314-.508-.454-.752s-.256-.5-.377-.729A8.459,8.459,0,0,1,57.657-5.7c-.068-.2-.139-.385-.188-.56s-.092-.339-.131-.484c-.119-.515-.192-.838-.208-.909Zm13.51,1.428a5.714,5.714,0,0,0,.273.957,11.3,11.3,0,0,0,1.127,2.3,10.81,10.81,0,0,0,.989,1.358c.205.217.4.449.622.67l.336.331.169.169.066.063.1.083.192.164L75.728.9l1.346,1.09c-.244.036-.634.067-.966.1s-.7.059-1.055.087c-.385.017-.8.017-1.234,0l-.661-.044-.442-.046A12.39,12.39,0,0,1,68.441.734a9.706,9.706,0,0,1-2.978-2.528,8.339,8.339,0,0,1-1.3-2.38c-.113-.3-.166-.554-.214-.718s-.068-.253-.068-.253l.139.222c.1.143.217.361.411.613a11.1,11.1,0,0,0,1.673,1.933A10.311,10.311,0,0,0,69.044-.486,13.84,13.84,0,0,0,72.908.546l.159.02.068.009h0l0,0a.068.068,0,0,0,.017.009A.186.186,0,0,0,73.195.6c.013,0,.043.009.04.005s.011-.025-.011-.08L73.218.513c-.008-.011,0,0,.009.009l0-.007L73.212.5,73.191.478,73.022.273l-.328-.4c-.209-.273-.391-.559-.576-.827a13.718,13.718,0,0,1-.848-1.627,8.506,8.506,0,0,1-.651-2.631,5.762,5.762,0,0,1,.02-1.017Zm-39.058,0A5.66,5.66,0,0,1,31.6-5.214a8.467,8.467,0,0,1-.651,2.631A13.521,13.521,0,0,1,30.1-.956c-.185.268-.367.554-.575.827l-.164.2-.165.2-.17.205L29.007.5l-.015.02L29,.507V.513l-.007.015c-.02.055-.019.074-.011.08s.027,0,.042-.005A.2.2,0,0,0,29.06.591a.05.05,0,0,0,.017-.009l0,0v0h0l.068-.009.158-.02A13.861,13.861,0,0,0,33.176-.486a10.322,10.322,0,0,0,2.937-1.892,11.041,11.041,0,0,0,1.673-1.933c.2-.252.315-.469.411-.613s.141-.222.141-.222l-.07.253c-.048.165-.1.414-.214.718a8.306,8.306,0,0,1-1.3,2.38A9.706,9.706,0,0,1,33.778.734,12.028,12.028,0,0,1,30.008,2l-.5.078-.442.046-.662.044c-.434.02-.85.02-1.234,0-.354-.028-.706-.058-1.055-.087-.332-.031-.722-.062-.966-.1.465-.375.911-.737,1.346-1.09l.617-.523.6-.515L27.9-.3,28-.388l.064-.063.169-.169.338-.331c.217-.221.415-.453.621-.67a10.548,10.548,0,0,0,.989-1.358,11.3,11.3,0,0,0,1.127-2.3,5.779,5.779,0,0,0,.272-.946ZM77.964-7.663a4.907,4.907,0,0,0,.669.976A11.673,11.673,0,0,0,80.88-4.618,12.867,12.867,0,0,0,82.6-3.546l.482.255.509.236.129.06.174.083a4.945,4.945,0,0,0,.524.233l1.173.461c.925.369,1.883.722,2.938,1.119l-.474.137L87.407-.8c-.428.1-.831.208-1.3.307l-.357.074-.394.063c-.255.046-.552.071-.836.106s-.6.044-.894.07c-.147.009-.311.02-.448.021l-.241.008a16.776,16.776,0,0,1-5.226-.751,14.033,14.033,0,0,1-4.087-2.1,11.827,11.827,0,0,1-2.295-2.244c-.241-.3-.4-.559-.519-.725l-.168-.244-.008-.012.236.205c.155.131.369.339.673.566A16.178,16.178,0,0,0,74.1-3.735a15.427,15.427,0,0,0,3.981,1.519,19.09,19.09,0,0,0,4.836.516l.222,0c.017,0,.007,0,.011,0l.007,0a.162.162,0,0,0,.031.008c.016,0,.035,0,.064.005H83.3a.029.029,0,0,0,.013,0c.007-.009.005-.021-.017-.052l-.047-.046-.028-.028a.45.45,0,0,0-.086-.054L83-1.944l-.512-.308-.482-.336a15.821,15.821,0,0,1-1.686-1.366,9.466,9.466,0,0,1-1.943-2.572A4.906,4.906,0,0,1,77.964-7.663Zm-53.708,0a4.905,4.905,0,0,1-.417,1.137A9.456,9.456,0,0,1,21.9-3.954a16.118,16.118,0,0,1-1.687,1.366l-.483.336-.254.154-.258.155-.131.079A.577.577,0,0,0,19-1.811l-.011.014-.016.015-.047.046c-.021.031-.023.043-.017.052l.005,0h.058l.063-.005a.137.137,0,0,0,.031-.008l.007,0v0h.012l.221,0a19.073,19.073,0,0,0,4.834-.516,15.437,15.437,0,0,0,3.982-1.519A16.092,16.092,0,0,0,30.67-5.46c.306-.227.519-.434.676-.566l.224-.2.009-.009c-.024.037-.082.121-.174.256-.119.166-.277.428-.517.725a11.881,11.881,0,0,1-2.3,2.244A14.016,14.016,0,0,1,24.5-.905a16.42,16.42,0,0,1-4.626.745l-.6.005-.24-.008c-.138,0-.3-.012-.449-.021-.3-.025-.613-.034-.894-.07-.189-.023-.384-.042-.568-.066l-.267-.04-.4-.063L16.11-.5c-.468-.1-.871-.206-1.3-.307l-.65-.158L13.686-1.1c1.056-.4,2.013-.751,2.938-1.119L17.8-2.678c.128-.05.243-.1.356-.15l.169-.084.173-.083.129-.06.511-.236.481-.255a12.867,12.867,0,0,0,1.724-1.072,11.634,11.634,0,0,0,2.248-2.069A4.833,4.833,0,0,0,24.255-7.663ZM86.568-8.908a13.765,13.765,0,0,0,1.378.382,33.565,33.565,0,0,0,3.67.665,35.179,35.179,0,0,0,5.219.257l1.4-.054,3.008-.117-2.636,1.46a17.447,17.447,0,0,1-2.186,1,23.907,23.907,0,0,1-2.325.755,21.169,21.169,0,0,1-6.247.671A18.282,18.282,0,0,1,82.5-5.008,15.534,15.534,0,0,1,79.11-6.792c-.382-.253-.654-.5-.851-.641l-.295-.231L78.3-7.5c.224.1.532.279.956.444a20.71,20.71,0,0,0,3.5,1.217,20.193,20.193,0,0,0,5.12.586,23.911,23.911,0,0,0,5.828-.8l.614-.165L94.91-6.4l-.568-.071c-1.04-.144-2.011-.34-2.886-.542a21.564,21.564,0,0,1-3.608-1.234A14.044,14.044,0,0,1,86.568-8.908Zm-70.919,0-.037.022c-.122.073-.547.318-1.242.643a21.52,21.52,0,0,1-3.608,1.234c-.872.2-1.838.4-2.873.54L7.307-6.4l.013,0q.294.091.592.176l.6.16a23.911,23.911,0,0,0,5.828.8,20.186,20.186,0,0,0,5.12-.586,20.6,20.6,0,0,0,3.5-1.217c.425-.165.734-.343.957-.444l.338-.165-.294.231c-.2.145-.469.387-.852.641a15.5,15.5,0,0,1-3.388,1.784A18.273,18.273,0,0,1,14.367-3.89,21.174,21.174,0,0,1,8.12-4.562a23.907,23.907,0,0,1-2.325-.755c-.57-.221-1.111-.449-1.649-.717l-.537-.282L.972-7.774l3.008.117,1.4.054A35.169,35.169,0,0,0,10.6-7.861a33.5,33.5,0,0,0,3.67-.665A13.515,13.515,0,0,0,15.649-8.908ZM95-6.419l-.07.018-.019,0,.064.009C95.529-6.324,95.3-6.478,95-6.419ZM7.26-6.389,7.307-6.4h0L7.248-6.41C6.941-6.473,6.7-6.325,7.26-6.389Zm94.959-9.524a6.537,6.537,0,0,1-.225.771,8.73,8.73,0,0,1-1.028,1.866c-.135.176-.287.348-.437.536-.076.094-.155.188-.233.284l-.263.273c-.178.18-.358.377-.559.558s-.418.346-.638.52a5.608,5.608,0,0,1-.7.489c-.243.154-.489.314-.744.461l-.8.389a6.7,6.7,0,0,1-.816.359,15.157,15.157,0,0,1-3.364.836c-.548.059-1.078.11-1.579.123l-1.411-.036c-.217,0-.425-.008-.622-.024s-.383-.059-.559-.088c-.348-.059-.653-.117-.9-.151l-.777-.161.784-.141c.248-.027.55-.076.891-.126.17-.023.353-.048.543-.072s.39-.074.6-.1l1.332-.222c.468-.1.95-.239,1.456-.336a23.561,23.561,0,0,0,3.053-.938,6.062,6.062,0,0,0,.748-.3l.733-.323.693-.374a6.621,6.621,0,0,0,.669-.378c.212-.137.424-.267.634-.393s.394-.279.588-.41l.285-.2.259-.213c.169-.142.339-.275.488-.415a16.469,16.469,0,0,0,1.415-1.438A6.622,6.622,0,0,0,102.219-15.913ZM0-15.913a6.527,6.527,0,0,0,.484.619A16.232,16.232,0,0,0,1.9-13.855c.15.141.319.273.488.415l.259.213.285.2c.194.131.385.276.588.41s.422.256.634.393a6.478,6.478,0,0,0,.669.378l.693.374.734.323a6.041,6.041,0,0,0,.747.3,23.626,23.626,0,0,0,3.053.938c.505.1.989.233,1.456.336l1.332.222c.208.029.407.07.6.1s.371.05.543.072c.342.05.643.1.89.126l.784.141-.776.161c-.248.035-.551.092-.9.151-.174.029-.362.058-.559.088s-.4.021-.621.024l-1.41.036c-.5-.013-1.032-.064-1.579-.123a15.186,15.186,0,0,1-3.365-.836,6.889,6.889,0,0,1-.816-.359l-.8-.389c-.253-.147-.5-.307-.743-.461a5.416,5.416,0,0,1-.7-.489c-.221-.174-.434-.348-.639-.52s-.381-.378-.559-.558c-.088-.094-.176-.184-.263-.273s-.157-.19-.233-.284c-.15-.188-.3-.361-.437-.536A8.715,8.715,0,0,1,.227-15.142,6.424,6.424,0,0,1,0-15.913Zm70.51-5.452a16.046,16.046,0,0,1,4.506,1.012c1.446.527,2.836,1.161,4.2,1.746,1.36.61,2.709,1.185,4.061,1.649a32.648,32.648,0,0,0,4.034,1.115,31.472,31.472,0,0,0,7.455.625c2.214-.1,4.089-.232,5.391-.426.655-.068,1.167-.151,1.52-.2l.539-.072-.043.016-.468.172c-.334.118-.819.312-1.45.523a33.436,33.436,0,0,1-5.373,1.283,34.344,34.344,0,0,1-3.719.32,23.416,23.416,0,0,1-4.2-.231,26.423,26.423,0,0,1-4.392-1.007,45.911,45.911,0,0,1-4.289-1.649c-2.769-1.246-5.395-2.544-7.967-2.852-.32-.052-.639-.054-.957-.084H68.4l-.48,0-.468.039c-.312.029-.622.047-.926.08a14.927,14.927,0,0,0-3.348.867,20.075,20.075,0,0,0-2.66,1.324,13.7,13.7,0,0,0-1.894,1.359,12.652,12.652,0,0,0-1.129,1.019c-.248.251-.367.4-.367.4s.084-.17.275-.47a12.349,12.349,0,0,1,.9-1.263,16.864,16.864,0,0,1,1.7-1.74,13.636,13.636,0,0,1,2.63-1.808,17.582,17.582,0,0,1,3.577-1.347c.332-.075.674-.133,1.02-.2.173-.032.348-.063.521-.094s.355-.034.535-.05c.358-.029.718-.066,1.088-.086C69.749-21.388,70.131-21.405,70.51-21.365Zm-37.665-.028c.37.02.73.056,1.09.086l.267.024h0l.265.025.523.094c.346.067.688.125,1.02.2a17.582,17.582,0,0,1,3.577,1.347,13.649,13.649,0,0,1,2.631,1.808,16.976,16.976,0,0,1,1.7,1.74,12.347,12.347,0,0,1,.9,1.263,5.343,5.343,0,0,1,.275.47s-.119-.149-.367-.4A12.462,12.462,0,0,0,43.6-15.754,13.683,13.683,0,0,0,41.7-17.113a20.241,20.241,0,0,0-2.66-1.324,14.939,14.939,0,0,0-3.349-.867c-.3-.034-.615-.051-.926-.08l-.469-.039H32.855c-.316.031-.635.032-.957.084-2.572.308-5.2,1.606-7.967,2.852a45.91,45.91,0,0,1-4.289,1.649A26.423,26.423,0,0,1,15.25-13.83a23.416,23.416,0,0,1-4.2.231,34.288,34.288,0,0,1-3.718-.32A33.422,33.422,0,0,1,1.961-15.2c-.631-.21-1.116-.4-1.45-.523L0-15.913l.539.072c.354.044.866.127,1.521.2,1.3.194,3.177.33,5.389.426a31.483,31.483,0,0,0,7.456-.625,32.629,32.629,0,0,0,4.033-1.115c1.352-.464,2.7-1.039,4.061-1.649,1.367-.586,2.756-1.22,4.2-1.746a16.056,16.056,0,0,1,4.506-1.012C32.088-21.405,32.47-21.388,32.845-21.393Z" transform="translate(0 21.393)" fill="#153566" clip-rule="evenodd"/>
    </clipPath>
    <clipPath id="clip-path-2">
      <path id="Path_1279" data-name="Path 1279" d="M-94,732.98H861.632V-803H-94Z" transform="translate(94 803)" fill="#153566"/>
    </clipPath>
    <clipPath id="clip-path-3">
      <path id="Path_1283" data-name="Path 1283" d="M32.118-27.365H49.471V-42.859H32.118Zm-1.742,1.742h20.84V-44.6H30.376Z" transform="translate(-30.376 44.6)" fill="#153566" clip-rule="evenodd"/>
    </clipPath>
    <clipPath id="clip-path-5">
      <path id="Path_1286" data-name="Path 1286" d="M47.579-44.914A1.214,1.214,0,0,0,46.366-43.7v18.578a1.213,1.213,0,0,0,1.213,1.212h2.644a1.213,1.213,0,0,0,1.212-1.212V-43.7a1.214,1.214,0,0,0-1.212-1.213Zm2.644,22.745H47.579a2.958,2.958,0,0,1-2.955-2.954V-43.7a2.958,2.958,0,0,1,2.955-2.955h2.644A2.958,2.958,0,0,1,53.178-43.7v18.578a2.958,2.958,0,0,1-2.954,2.954Z" transform="translate(-44.624 46.656)" fill="#153566" clip-rule="evenodd"/>
    </clipPath>
    <clipPath id="clip-path-7">
      <path id="Path_1289" data-name="Path 1289" d="M28.219-44.914A1.213,1.213,0,0,0,27.008-43.7v18.578a1.212,1.212,0,0,0,1.212,1.212h2.646a1.212,1.212,0,0,0,1.212-1.212V-43.7a1.213,1.213,0,0,0-1.212-1.213Zm2.646,22.745H28.219a2.959,2.959,0,0,1-2.955-2.954V-43.7a2.959,2.959,0,0,1,2.955-2.955h2.646A2.958,2.958,0,0,1,33.82-43.7v18.578a2.958,2.958,0,0,1-2.955,2.954Z" transform="translate(-25.264 46.656)" fill="#153566" clip-rule="evenodd"/>
    </clipPath>
    <clipPath id="clip-path-9">
      <path id="Path_1294" data-name="Path 1294" d="M34.439-31.741h9.87V8.978h-9.87Z" transform="translate(-34.439 31.741)" fill="#fe7678" clip-rule="evenodd"/>
    </clipPath>
    <clipPath id="clip-path-10">
      <path id="Path_1293" data-name="Path 1293" d="M-94,727.475H861.632V-803H-94Z" transform="translate(94 803)" fill="#153566"/>
    </clipPath>
    <clipPath id="clip-path-11">
      <rect id="Rectangle_1639" data-name="Rectangle 1639" width="10.722" height="42.736" fill="#fe7678"/>
    </clipPath>
    <clipPath id="clip-path-12">
      <path id="Path_1292" data-name="Path 1292" d="M38.062-30,36.181,5.777a3.194,3.194,0,0,0,6.387-.047L40.858-30Zm1.313,40.654A4.933,4.933,0,0,1,34.439,5.73l1.969-37.471H42.52l1.789,37.43a4.939,4.939,0,0,1-4.934,4.96Z" transform="translate(-34.439 31.741)" fill="#fe7678" clip-rule="evenodd"/>
    </clipPath>
    <clipPath id="clip-path-13">
      <path id="Path_1291" data-name="Path 1291" d="M34,10.736H44.722V-32H34Z" transform="translate(-34 32)" fill="#fe7678"/>
    </clipPath>
  </defs>
  <g id="Group_2633" data-name="Group 2633" transform="translate(0 0)">
    <g id="Group_2643" data-name="Group 2643" transform="translate(0)">
      <path id="Path_1430" data-name="Path 1430" d="M37.043-30.913h4.233L43.193,5.271s.048,2.007-.724,2.709a7.074,7.074,0,0,1-2.847,1.552c-.515,0-2.037.03-2.578-.51a6.925,6.925,0,0,1-1.7-2.254,5.721,5.721,0,0,1-.289-2.076C35.129,4.081,37.043-30.913,37.043-30.913Z" transform="translate(11.921 52.231)" fill="#fe7678"/>
      <g id="Group_2513" data-name="Group 2513" transform="translate(0 33.86)" clip-path="url(#clip-path)">
        <g id="Group_2512" data-name="Group 2512" transform="translate(-125.988 -1047.585)" clip-path="url(#clip-path-2)">
          <path id="Path_1278" data-name="Path 1278" d="M-5-26.393H110.622V11.781H-5Z" transform="translate(124.286 1067.277)" fill="#153566"/>
        </g>
      </g>
      <g id="Group_2515" data-name="Group 2515" transform="translate(40.713 2.756)" clip-path="url(#clip-path-3)">
        <g id="Group_2514" data-name="Group 2514" transform="translate(-166.701 -1016.481)" clip-path="url(#clip-path-2)">
          <path id="Path_1281" data-name="Path 1281" d="M25.376-49.6H59.619v32.38H25.376Z" transform="translate(134.623 1059.38)" fill="#153566"/>
        </g>
      </g>
      <g id="Group_2517" data-name="Group 2517" transform="translate(59.809)" clip-path="url(#clip-path-5)">
        <g id="Group_2516" data-name="Group 2516" transform="translate(-185.797 -1013.725)" clip-path="url(#clip-path-2)">
          <path id="Path_1284" data-name="Path 1284" d="M39.624-51.656H61.581v37.89H39.624Z" transform="translate(139.472 1058.68)" fill="#153566"/>
        </g>
      </g>
      <g id="Group_2519" data-name="Group 2519" transform="translate(33.861)" clip-path="url(#clip-path-7)">
        <g id="Group_2518" data-name="Group 2518" transform="translate(-159.849 -1013.725)" clip-path="url(#clip-path-2)">
          <path id="Path_1287" data-name="Path 1287" d="M20.264-51.656H42.223v37.89H20.264Z" transform="translate(132.884 1058.68)" fill="#153566"/>
        </g>
      </g>
      <g id="Group_2525" data-name="Group 2525" transform="translate(46.158 21.733)" clip-path="url(#clip-path-9)">
        <g id="Group_2524" data-name="Group 2524" transform="translate(-172.146 -1031.601)" clip-path="url(#clip-path-10)">
          <g id="Group_2523" data-name="Group 2523" transform="translate(171.558 1029.665)" style="mix-blend-mode: normal;isolation: isolate">
            <g id="Group_2522" data-name="Group 2522" transform="translate(0 0)" clip-path="url(#clip-path-11)">
              <g id="Group_2521" data-name="Group 2521" transform="translate(0.588 0.346)" clip-path="url(#clip-path-12)">
                <g id="Group_2520" data-name="Group 2520" transform="translate(-0.588 -0.346)" clip-path="url(#clip-path-13)">
                  <path id="Path_1290" data-name="Path 1290" d="M29.439-36.741H52.712V19H29.439Z" transform="translate(-35.552 30.409)" fill="#fe7678"/>
                </g>
              </g>
            </g>
          </g>
        </g>
      </g>
    </g>
  </g>
  <rect id="Rectangle_1656" data-name="Rectangle 1656" width="6.701" height="21.445" transform="translate(35.204 1.34)" fill="#153566"/>
  <rect id="Rectangle_1657" data-name="Rectangle 1657" width="6.701" height="21.445" transform="translate(60.669 1.34)" fill="#153566"/>
</svg>
