<svg id="Group_2630" data-name="Group 2630" xmlns="http://www.w3.org/2000/svg" xmlns:xlink="http://www.w3.org/1999/xlink" width="67.304" height="51.124" viewBox="0 0 67.304 51.124">
  <defs>
    <clipPath id="clip-path">
      <path id="Path_839" data-name="Path 839" d="M56.09-47.8H23.506A5.515,5.515,0,0,0,18-42.294V-2.069a5.468,5.468,0,0,0,5.393,5.393H79.91A5.394,5.394,0,0,0,85.3-2.069V-42.294a5.394,5.394,0,0,0-5.393-5.393H56.09Zm18.539,2.247a3.058,3.058,0,0,1,2.921,3.258V-2.069a3.132,3.132,0,0,1-2.921,3.258H23.169a3.058,3.058,0,0,1-2.921-3.258V-42.294a3.132,3.132,0,0,1,2.921-3.258H74.629Zm8.539,23.034a2.254,2.254,0,0,1-2.247,2.247,2.254,2.254,0,0,1-2.247-2.247,2.254,2.254,0,0,1,2.247-2.247A2.254,2.254,0,0,1,83.169-22.519Z" transform="translate(-18 47.8)" fill="#153566"/>
    </clipPath>
    <clipPath id="clip-path-2">
      <path id="Path_838" data-name="Path 838" d="M-353,17126.053H3742.121V-368H-353Z" transform="translate(353 368)" fill="#153566"/>
    </clipPath>
    <clipPath id="clip-path-3">
      <path id="Path_842" data-name="Path 842" d="M70.8-45.28H22.487a2.254,2.254,0,0,0-2.247,2.247V-5.954a2.254,2.254,0,0,0,2.247,2.247H70.8a2.254,2.254,0,0,0,2.247-2.247V-43.033A2.254,2.254,0,0,0,70.8-45.28ZM36.869-23.595a3.573,3.573,0,0,1-1.011,2.809,4.2,4.2,0,0,1-2.809.9,4.2,4.2,0,0,1-2.809-.9,3.739,3.739,0,0,1-1.011-2.809V-29.1c0-.112,0-.225.112-.225.112-.112.112-.112.225-.112H30.8c.112,0,.225,0,.225.112.112.112.112.112.112.225v5.506a2.223,2.223,0,0,0,.562,1.573,1.941,1.941,0,0,0,1.461.562,1.941,1.941,0,0,0,1.461-.562,2.223,2.223,0,0,0,.562-1.573V-29.1c0-.112,0-.225.112-.225.112-.112.112-.112.225-.112h1.236c.112,0,.225,0,.225.112.112.112.112.112.112.225v5.506Zm8.539-.562a4.414,4.414,0,0,1-2.584.787H40.8v3.146c0,.112,0,.225-.112.225-.112.112-.112.112-.225.112H39.116c-.112,0-.112,0-.225-.112s-.112-.112-.112-.225v-8.764c0-.112,0-.225.112-.225.112-.112.112-.112.225-.112h3.6a3.746,3.746,0,0,1,2.584.787,2.606,2.606,0,0,1,.9,2.247A2.442,2.442,0,0,1,45.409-24.156Zm9.888.674a3.8,3.8,0,0,1-1.124,2.809,3.857,3.857,0,0,1-2.809.9,4.761,4.761,0,0,1-2.921-.9,4.291,4.291,0,0,1-1.124-2.809v-2.247a3.367,3.367,0,0,1,1.124-2.7,3.917,3.917,0,0,1,2.809-1.011,3.739,3.739,0,0,1,2.809,1.011,3.721,3.721,0,0,1,1.124,2.7v1.124A2.522,2.522,0,0,1,55.3-23.482Zm8.315,2.36a3.067,3.067,0,0,1-1.348,1.011,5.443,5.443,0,0,1-2.022.337,5.443,5.443,0,0,1-2.022-.337,3.068,3.068,0,0,1-1.348-1.011,1.962,1.962,0,0,1-.449-1.348c0-.112,0-.112.112-.225,0-.112.112-.112.225-.112h1.236c.112,0,.225,0,.225.112.112,0,.112.112.225.225a2.015,2.015,0,0,0,.562.787,2.4,2.4,0,0,0,1.348.337,2.549,2.549,0,0,0,1.461-.337.912.912,0,0,0,.449-.9.858.858,0,0,0-.225-.562,2.412,2.412,0,0,0-.787-.449c-.337-.112-.787-.225-1.461-.449a5.748,5.748,0,0,1-2.36-1.011,2.444,2.444,0,0,1-.787-1.8,1.791,1.791,0,0,1,.449-1.348,3.742,3.742,0,0,1,1.236-1.011,3.437,3.437,0,0,1,1.91-.337,4.842,4.842,0,0,1,1.91.337A2.261,2.261,0,0,1,63.386-28.2a1.61,1.61,0,0,1,.449,1.124c0,.112,0,.112-.112.225,0,.112-.112.112-.225.112H62.263a.584.584,0,0,1-.449-.225.712.712,0,0,0-.562-.674,1.9,1.9,0,0,0-1.124-.337A1.677,1.677,0,0,0,59-27.639a.848.848,0,0,0-.449.787.858.858,0,0,0,.225.562,1.728,1.728,0,0,0,.674.449c.337.112.787.225,1.348.449a13.7,13.7,0,0,1,1.91.562,2.653,2.653,0,0,1,1.011.9,2.4,2.4,0,0,1,.337,1.348A2.471,2.471,0,0,1,63.611-21.123Z" transform="translate(-20.24 45.28)" fill="#fe7678"/>
    </clipPath>
    <clipPath id="clip-path-4">
      <path id="Path_841" data-name="Path 841" d="M-353,17126.053H3742.121V-368H-353Z" transform="translate(353 368)" fill="#fe7678"/>
    </clipPath>
    <clipPath id="clip-path-5">
      <path id="Path_845" data-name="Path 845" d="M38.171-36.094a1.941,1.941,0,0,0-1.461-.562,2.136,2.136,0,0,0-1.461.562,2.326,2.326,0,0,0-.562,1.685v2.247a2.529,2.529,0,0,0,.562,1.685,1.941,1.941,0,0,0,1.461.562,2.136,2.136,0,0,0,1.461-.562,2.326,2.326,0,0,0,.562-1.685v-2.247A2.326,2.326,0,0,0,38.171-36.094Z" transform="translate(-34.688 36.656)" fill="#fe7678" clip-rule="evenodd"/>
    </clipPath>
    <clipPath id="clip-path-7">
      <path id="Path_848" data-name="Path 848" d="M32.4-36.6h-1.91v2.921H32.4a2.018,2.018,0,0,0,1.236-.337,1.5,1.5,0,0,0,.449-1.124,1.443,1.443,0,0,0-.449-1.124A1.807,1.807,0,0,0,32.4-36.6Z" transform="translate(-30.488 36.6)" fill="#fe7678" clip-rule="evenodd"/>
    </clipPath>
  </defs>
  <g id="Group_2144" data-name="Group 2144" clip-path="url(#clip-path)">
    <g id="Group_2143" data-name="Group 2143" transform="translate(-744.385 -642.458)" clip-path="url(#clip-path-2)">
      <path id="Path_837" data-name="Path 837" d="M13-52.8h87.368V18.388H13Z" transform="translate(721.353 685.226)" fill="#153566"/>
    </g>
  </g>
  <g id="Group_2146" data-name="Group 2146" transform="translate(4.494 5.056)" clip-path="url(#clip-path-3)">
    <g id="Group_2145" data-name="Group 2145" transform="translate(-748.879 -647.515)" clip-path="url(#clip-path-4)">
      <path id="Path_840" data-name="Path 840" d="M15.24-50.28H88.113V11.357H15.24Z" transform="translate(723.607 687.763)" fill="#fe7678"/>
    </g>
  </g>
  <g id="Group_2148" data-name="Group 2148" transform="translate(33.483 22.36)" clip-path="url(#clip-path-5)">
    <g id="Group_2147" data-name="Group 2147" transform="translate(-777.868 -664.818)" clip-path="url(#clip-path-4)">
      <path id="Path_843" data-name="Path 843" d="M29.688-41.656H53.8V-14.85H29.688Z" transform="translate(738.148 696.442)" fill="#fe7678"/>
    </g>
  </g>
  <g id="Group_2150" data-name="Group 2150" transform="translate(25.056 22.472)" clip-path="url(#clip-path-7)">
    <g id="Group_2149" data-name="Group 2149" transform="translate(-769.441 -664.93)" clip-path="url(#clip-path-4)">
      <path id="Path_846" data-name="Path 846" d="M25.488-41.6h23.66v22.986H25.488Z" transform="translate(733.921 696.498)" fill="#fe7678"/>
    </g>
  </g>
</svg>
