<svg width="100" height="19" viewBox="0 0 100 19" fill="none" xmlns="http://www.w3.org/2000/svg">
<g clip-path="url(#clip0_846_1448)">
<path d="M58.8081 7.99185V15.3591C58.8174 15.4398 58.8075 15.5215 58.7794 15.5977C58.7513 15.674 58.7058 15.7425 58.6463 15.7979C58.5158 15.8862 58.36 15.9292 58.2027 15.9204C58.0477 15.9299 57.8939 15.8868 57.7665 15.7979C57.7087 15.7415 57.6646 15.6726 57.6373 15.5966C57.6101 15.5206 57.6005 15.4393 57.6094 15.3591V6.48062C57.5975 6.37315 57.6111 6.26437 57.649 6.16312C57.687 6.06187 57.7482 5.97103 57.8278 5.89785C58.0054 5.79448 58.2062 5.73764 58.4116 5.73261C58.617 5.72757 58.8204 5.77448 59.0028 5.86902C59.1368 5.97626 59.2389 6.118 59.2982 6.27901L62.5914 14.3228L65.8846 6.27901C65.9434 6.11952 66.0428 5.9782 66.1731 5.86902C66.3493 5.77448 66.5471 5.72743 66.7469 5.73248C66.9468 5.73753 67.1419 5.79453 67.3131 5.89785C67.3886 5.9735 67.4462 6.06512 67.4815 6.166C67.5169 6.26687 67.5291 6.37438 67.5173 6.48062V15.3591C67.5262 15.4393 67.5167 15.5206 67.4894 15.5966C67.4622 15.6726 67.4181 15.7415 67.3603 15.7979C67.2328 15.8868 67.0791 15.9299 66.9241 15.9204C66.767 15.9291 66.6113 15.8861 66.481 15.7979C66.4215 15.7425 66.3759 15.674 66.3478 15.5977C66.3197 15.5215 66.3099 15.4398 66.3192 15.3591V7.97561L63.2794 15.314C63.2237 15.4477 63.1368 15.5662 63.026 15.6596C62.8892 15.7534 62.7273 15.8035 62.5615 15.8035C62.3957 15.8035 62.2338 15.7534 62.0971 15.6596C61.9863 15.5662 61.8994 15.4477 61.8436 15.314L58.8081 7.99185ZM76.3433 6.32248C76.3339 6.23852 76.3435 6.15353 76.3715 6.07382C76.3995 5.99411 76.4453 5.9218 76.5052 5.86224C76.6384 5.7683 76.7996 5.72264 76.9623 5.73286C77.1272 5.72339 77.2906 5.76892 77.4268 5.86224C77.4888 5.92054 77.5364 5.99245 77.5657 6.07235C77.5951 6.15225 77.6055 6.23789 77.5959 6.32248V12.179C77.6024 12.7148 77.5167 13.2478 77.3425 13.7546C77.1849 14.2112 76.9305 14.6285 76.5968 14.9778C76.2514 15.3297 75.8337 15.6022 75.3725 15.7764C74.8326 15.9775 74.2598 16.0752 73.6838 16.0644C73.1099 16.0756 72.5392 15.978 72.0018 15.7764C71.5432 15.6009 71.128 15.3285 70.7843 14.9778C70.4507 14.6285 70.1963 14.2112 70.0387 13.7546C69.8645 13.2478 69.7788 12.7148 69.7852 12.179V6.32248C69.7757 6.23789 69.7861 6.15225 69.8154 6.07235C69.8448 5.99245 69.8924 5.92054 69.9544 5.86224C70.0906 5.76892 70.254 5.72339 70.4188 5.73286C70.5817 5.72251 70.7432 5.76819 70.8765 5.86224C70.9364 5.92182 70.9821 5.99412 71.0101 6.07382C71.0381 6.15352 71.0477 6.23852 71.0383 6.32248V12.0763C71.008 12.4636 71.0546 12.853 71.1753 13.2222C71.2961 13.5913 71.4887 13.933 71.7421 14.2275C72.2887 14.6875 72.9803 14.9398 73.6948 14.9398C74.4092 14.9398 75.1008 14.6875 75.6474 14.2275C76.1546 13.6306 76.405 12.8572 76.3439 12.0763L76.3433 6.32248ZM84.1258 10.4069C84.8048 10.5763 85.425 10.9269 85.9203 11.4212C86.3207 11.9074 86.5241 12.5262 86.49 13.155C86.5022 13.6069 86.4082 14.0553 86.2156 14.4642C86.0418 14.8171 85.7913 15.1268 85.4825 15.3706C85.1692 15.614 84.8103 15.7921 84.4269 15.8942C84.0257 16.0049 83.6114 16.0606 83.1953 16.0597C82.5106 16.0626 81.8294 15.9607 81.1756 15.7576C80.5464 15.5647 79.9804 15.2071 79.536 14.7218C79.4385 14.627 79.3638 14.5114 79.3177 14.3835C79.2955 14.3013 79.2837 14.2167 79.2826 14.1316C79.2845 14.0507 79.3043 13.9712 79.3406 13.8988C79.3768 13.8264 79.4285 13.7628 79.4921 13.7127C79.6089 13.598 79.7646 13.5313 79.9282 13.5257C80.0096 13.5341 80.0873 13.5639 80.1534 13.6122C80.2185 13.6594 80.2797 13.712 80.3361 13.7693C80.706 14.1826 81.1625 14.5093 81.6731 14.726C82.1508 14.9003 82.6564 14.9856 83.1649 14.9778C83.6925 14.9992 84.213 14.8503 84.6494 14.5531C84.8427 14.4107 84.9973 14.2222 85.0992 14.0049C85.2012 13.7875 85.2473 13.5481 85.2333 13.3085C85.2443 13.1002 85.2126 12.8919 85.14 12.6963C85.0674 12.5008 84.9555 12.3222 84.8112 12.1716C84.4091 11.8296 83.9315 11.5879 83.4178 11.4662L82.1935 11.1065C81.4707 10.9368 80.8012 10.5909 80.2445 10.0995C80.0229 9.86365 79.8518 9.58498 79.7417 9.28064C79.6315 8.97629 79.5848 8.65269 79.6041 8.32961C79.5923 7.89748 79.6968 7.47016 79.9068 7.09228C80.1034 6.75251 80.3725 6.4602 80.6949 6.23612C81.0201 6.01001 81.382 5.84204 81.7647 5.7397C82.1429 5.63609 82.5334 5.58323 82.9256 5.58258C83.5484 5.57806 84.1665 5.6903 84.7479 5.91351C85.3205 6.13778 85.8198 6.51622 86.1905 7.00688C86.2545 7.09083 86.3073 7.1827 86.3476 7.28021C86.3754 7.35388 86.3897 7.43194 86.39 7.51065C86.3918 7.58719 86.3763 7.66312 86.3446 7.73284C86.313 7.80256 86.266 7.8643 86.2073 7.91336C86.0999 8.01252 85.9597 8.06843 85.8135 8.07041C85.7221 8.07134 85.632 8.04898 85.5517 8.00547C85.45 7.94469 85.3575 7.86961 85.2773 7.78244C84.9781 7.42444 84.6096 7.13068 84.1939 6.91893C83.7914 6.73859 83.3539 6.65005 82.913 6.65973C82.6564 6.6589 82.4008 6.69272 82.1532 6.76027C81.9193 6.82273 81.6979 6.92495 81.4987 7.06243C81.3074 7.19567 81.1485 7.37034 81.0342 7.57348C80.9139 7.79126 80.8532 8.0369 80.8582 8.28563C80.8561 8.45428 80.8823 8.62208 80.9357 8.78205C80.9937 8.94102 81.0849 9.08582 81.2033 9.20674C81.3568 9.36045 81.5353 9.48703 81.7312 9.58113C82.0029 9.71463 82.2852 9.8253 82.5752 9.91205L84.1258 10.4069ZM88.3615 6.32248C88.3521 6.23852 88.3617 6.15353 88.3897 6.07382C88.4178 5.99411 88.4634 5.9218 88.5233 5.86224C88.6608 5.7775 88.8192 5.73261 88.9808 5.73261C89.1423 5.73261 89.3007 5.7775 89.4382 5.86224C89.4981 5.9218 89.5437 5.99411 89.5718 6.07382C89.5998 6.15353 89.6094 6.23852 89.6 6.32248V15.3292C89.6094 15.4132 89.5998 15.4982 89.5718 15.5779C89.5437 15.6576 89.4981 15.7299 89.4382 15.7894C89.3006 15.8741 89.1423 15.919 88.9808 15.919C88.8192 15.919 88.6609 15.8741 88.5233 15.7894C88.4634 15.7299 88.4178 15.6576 88.3897 15.5779C88.3617 15.4982 88.3521 15.4132 88.3615 15.3292V6.32248ZM98.8041 13.1864C98.8675 13.0612 98.9505 12.947 99.0502 12.8482C99.1336 12.7749 99.2419 12.7362 99.3528 12.7403C99.5007 12.7447 99.6454 12.7842 99.7749 12.8555C99.8508 12.8972 99.9126 12.9604 99.9527 13.0372C99.9928 13.1139 100.009 13.2009 100 13.287C99.9847 13.5293 99.9097 13.764 99.7817 13.9703C99.6475 14.2176 99.4896 14.4514 99.3104 14.6683C99.2448 14.7451 99.1299 14.8626 98.9659 15.0208C98.7698 15.2023 98.5525 15.3593 98.3187 15.4884C98.0174 15.6565 97.699 15.7916 97.3688 15.8916C96.9578 16.0131 96.5306 16.0713 96.1021 16.0644C95.4518 16.0732 94.807 15.9456 94.2091 15.69C93.6535 15.4491 93.1567 15.0908 92.7528 14.6396C92.3336 14.1613 92.0153 13.6032 91.8171 12.999C91.3761 11.5913 91.3761 10.0824 91.8171 8.67472C92.0153 8.06618 92.3335 7.50351 92.7528 7.01999C93.155 6.56514 93.6521 6.20405 94.2091 5.96221C94.807 5.70673 95.4519 5.57938 96.1021 5.58834C96.5156 5.58181 96.9279 5.63474 97.3263 5.74546C97.6434 5.83487 97.95 5.95772 98.2411 6.11198C98.4643 6.22995 98.6722 6.37484 98.8601 6.54345C99.0196 6.69217 99.1369 6.80969 99.212 6.89592C99.3929 7.11471 99.5552 7.34813 99.6974 7.59388C99.8327 7.7977 99.9126 8.03321 99.9294 8.27726C99.9383 8.36413 99.921 8.45168 99.8796 8.5286C99.8383 8.60551 99.7748 8.66825 99.6974 8.70873C99.565 8.77965 99.4181 8.81906 99.268 8.82392C99.1571 8.82794 99.0488 8.78938 98.9654 8.71608C98.8759 8.63133 98.802 8.53155 98.747 8.42128C98.6359 8.21723 98.5088 8.02233 98.3669 7.83844C98.212 7.63677 98.0323 7.45538 97.8322 7.29856C97.6102 7.127 97.3629 6.99118 97.0991 6.89592C96.7828 6.78506 96.4492 6.73182 96.1141 6.7388C95.6258 6.72875 95.1418 6.8322 94.7003 7.04095C94.2961 7.23925 93.9424 7.527 93.6661 7.88242C93.3719 8.26822 93.1568 8.7083 93.033 9.1774C92.7515 10.2626 92.7515 11.4017 93.033 12.4869C93.1568 12.956 93.3719 13.396 93.6661 13.7818C93.9423 14.1374 94.296 14.4254 94.7003 14.6238C95.1418 14.8326 95.6258 14.936 96.1141 14.926C96.4834 14.935 96.8511 14.8739 97.1975 14.7459C97.7157 14.549 98.1588 14.1942 98.4642 13.7316C98.5969 13.5308 98.7107 13.3488 98.8056 13.1854L98.8041 13.1864Z" fill="#040505"/>
<path d="M19.0178 7.19017C18.9677 7.01104 18.9385 6.82667 18.9309 6.64083C18.926 6.52811 18.9476 6.41583 18.994 6.31298C19.0403 6.21012 19.1102 6.11956 19.1979 6.0486C19.4087 5.89374 19.6668 5.81712 19.9279 5.83184C20.156 5.81102 20.3841 5.87246 20.5709 6.00513C20.712 6.14072 20.8058 6.31808 20.8385 6.51101L22.3702 13.5346L23.873 6.58324C23.8881 6.45741 23.9326 6.33691 24.003 6.23148C24.0733 6.12604 24.1674 6.03866 24.2778 5.97637C24.4809 5.87983 24.7033 5.83043 24.9282 5.83184C25.1434 5.8271 25.3559 5.88139 25.5424 5.98889C25.6441 6.06203 25.7304 6.15463 25.7961 6.26133C25.8618 6.36802 25.9057 6.48669 25.9252 6.61047L27.4568 13.5331L29.0178 6.4639C29.0477 6.27264 29.1497 6.10006 29.303 5.9818C29.4562 5.86353 29.649 5.80853 29.8415 5.82813C30.0998 5.81059 30.3544 5.89633 30.5495 6.06643C30.6289 6.14155 30.6918 6.23243 30.7341 6.33324C30.7764 6.43405 30.7971 6.54259 30.7951 6.65189C30.791 6.84271 30.7618 7.03211 30.7082 7.21529L28.5549 15.3517C28.527 15.4673 28.4753 15.5758 28.4032 15.6704C28.3311 15.7649 28.2401 15.8435 28.136 15.901C27.921 16.0093 27.6828 16.0632 27.4422 16.0581C27.1657 16.074 26.8912 16.0033 26.6567 15.8559C26.4694 15.7218 26.3422 15.5195 26.3027 15.2925L24.8721 8.94859L23.4269 15.337C23.4093 15.4545 23.365 15.5664 23.2974 15.6641C23.2297 15.7618 23.1406 15.8427 23.0368 15.9005C22.8171 16.0098 22.574 16.0637 22.3288 16.0576C22.0548 16.0759 21.7826 16.0022 21.5554 15.8481C21.3743 15.7028 21.2456 15.5024 21.1888 15.2773L19.0178 7.19017ZM33.9898 11.5689L31.2873 7.29123C31.1615 7.10779 31.0914 6.89198 31.0852 6.66966C31.0789 6.55291 31.0983 6.4362 31.1419 6.32774C31.1856 6.21928 31.2524 6.12167 31.3378 6.04182C31.4232 5.96197 31.5251 5.90181 31.6362 5.86553C31.7473 5.82924 31.8651 5.81775 31.9811 5.83184C32.1863 5.81724 32.3895 5.87893 32.5519 6.00513C32.684 6.12306 32.7985 6.25942 32.8917 6.40995L34.9586 9.86599L36.9819 6.55658C37.0876 6.37662 37.2104 6.20719 37.3485 6.05071C37.4223 5.97542 37.5115 5.91708 37.6101 5.87965C37.7086 5.84222 37.8141 5.82663 37.9193 5.83395C38.1502 5.82766 38.3765 5.89881 38.5623 6.03607C38.6484 6.0988 38.7178 6.18168 38.7644 6.27744C38.8111 6.37319 38.8336 6.47889 38.8299 6.58535C38.8264 6.69073 38.8088 6.79517 38.7775 6.89588C38.7484 7.00596 38.7021 7.11077 38.6403 7.20641L35.8079 11.571V15.2276C35.8112 15.4393 35.7423 15.6458 35.6126 15.8131C35.5232 15.9064 35.4135 15.9778 35.292 16.0216C35.1704 16.0655 35.0404 16.0807 34.912 16.0659C34.2955 16.0659 33.9872 15.7867 33.9872 15.2281L33.9898 11.5689ZM39.8285 6.77123C39.8167 6.63957 39.8346 6.50697 39.8809 6.38316C39.9272 6.25935 40.0007 6.14752 40.0961 6.05595C40.2857 5.90265 40.5243 5.82306 40.7679 5.83184C40.9533 5.83024 41.1365 5.87239 41.3025 5.95489C41.5111 6.08286 41.6808 6.26512 41.7937 6.48218L45.4645 12.8267V6.67177C45.4516 6.55298 45.4658 6.43279 45.5057 6.3202C45.5457 6.20761 45.6105 6.10547 45.6954 6.02137C45.8839 5.8854 46.1138 5.81897 46.3458 5.83337C46.5774 5.82195 46.8063 5.8881 46.9961 6.02137C47.0852 6.10293 47.1538 6.20428 47.1965 6.31726C47.2391 6.43023 47.2546 6.5517 47.2417 6.67177V15.1407C47.2415 15.2497 47.2319 15.3585 47.2129 15.4658C47.1956 15.5717 47.1562 15.6727 47.0972 15.7622C47.0305 15.8563 46.9402 15.931 46.8354 15.979C46.685 16.0437 46.5219 16.0734 46.3583 16.0659C46.1549 16.0633 45.956 16.0055 45.7829 15.8986C45.6097 15.7917 45.4689 15.6398 45.3755 15.4591L41.6178 9.36069V15.2135C41.621 15.4239 41.5606 15.6303 41.4444 15.8057C41.3596 15.9035 41.2518 15.9786 41.1306 16.0243C41.0095 16.07 40.8789 16.0849 40.7506 16.0675C40.4977 16.0907 40.2452 16.0186 40.0427 15.8654C39.9635 15.7779 39.9034 15.6749 39.8661 15.5629C39.8288 15.451 39.8151 15.3325 39.8259 15.215L39.8285 6.77123ZM49.1211 6.64083C49.1099 6.5245 49.127 6.40723 49.1711 6.29898C49.2151 6.19073 49.2848 6.09478 49.374 6.01932C49.5716 5.8854 49.8074 5.81941 50.0458 5.83133C50.275 5.82189 50.5009 5.88794 50.6889 6.01932C50.7781 6.09478 50.8478 6.19073 50.8918 6.29898C50.9359 6.40723 50.953 6.5245 50.9418 6.64083V10.1524L54.2078 6.35178C54.319 6.22071 54.4417 6.09982 54.5743 5.99049C54.7078 5.88384 54.8749 5.82812 55.0456 5.83337C55.1621 5.82971 55.278 5.85189 55.3849 5.89832C55.4823 5.94547 55.5724 6.00629 55.6525 6.07896C55.7362 6.1617 55.8068 6.25674 55.862 6.36073C55.9169 6.47048 55.9443 6.59201 55.9416 6.71472C55.938 6.8352 55.9083 6.95346 55.8547 7.06137C55.7957 7.18812 55.7177 7.30503 55.6232 7.40802L53.3254 10.053L56.2448 14.7353C56.331 14.8688 56.3761 15.0247 56.3746 15.1836C56.3784 15.4152 56.2901 15.6388 56.129 15.8052C56.036 15.896 55.9249 15.9663 55.8029 16.0114C55.6809 16.0565 55.5508 16.0755 55.4211 16.067C55.2394 16.0741 55.0609 16.0186 54.9152 15.9099C54.7683 15.7896 54.6457 15.6425 54.5539 15.4763L51.9959 11.372L50.9407 12.5858V15.2161C50.9435 15.4286 50.8776 15.6363 50.7528 15.8083C50.6642 15.9053 50.5538 15.9797 50.4306 16.0252C50.3074 16.0708 50.1751 16.0862 50.0448 16.0702C49.7919 16.0933 49.5394 16.0212 49.3368 15.868C49.2577 15.7805 49.1976 15.6775 49.1603 15.5656C49.123 15.4536 49.1093 15.3351 49.12 15.2176L49.1211 6.64083Z" fill="#E4001B"/>
<path d="M14.143 5.40244L14.0435 6.30782C15.2089 7.37404 15.9648 8.81423 16.1801 10.379C16.3954 11.9439 16.0567 13.5348 15.2226 14.8761C14.3884 16.2175 13.1114 17.2249 11.6128 17.7238C10.1141 18.2228 8.48805 18.1819 7.01635 17.6082C5.54464 17.0345 4.31991 15.9642 3.55428 14.5826C2.78865 13.201 2.53034 11.5951 2.82408 10.0431C3.11781 8.49106 3.94511 7.09062 5.16267 6.08435C6.38023 5.07808 7.91138 4.52937 9.49095 4.53317C10.1889 4.53296 10.8826 4.64218 11.5468 4.8568L11.6311 4.11218C10.9266 3.9038 10.1958 3.79793 9.4611 3.79794C8.47038 3.79291 7.48839 3.98338 6.57135 4.35834C5.65431 4.73331 4.82022 5.28543 4.11685 5.98317C3.41348 6.6809 2.85463 7.51053 2.47228 8.42452C2.08994 9.33851 1.89162 10.3189 1.88867 11.3097C1.92681 13.3083 2.74192 15.2134 4.16115 16.6211C5.58038 18.0288 7.49211 18.8283 9.49095 18.8501C11.4881 18.8397 13.4005 18.0421 14.8132 16.6304C16.2259 15.2187 17.0248 13.3068 17.0367 11.3097C17.0378 10.169 16.7775 9.04326 16.2759 8.01881C15.7743 6.99436 15.0447 6.09845 14.143 5.39982" fill="#E1051D"/>
<path d="M13.8576 7.99452L13.6963 9.46069C13.9761 10.056 14.1217 10.7054 14.1231 11.3631C14.1048 12.5893 13.6093 13.7601 12.7418 14.6268C11.8743 15.4936 10.703 15.9881 9.47681 16.0052C8.24641 16.0015 7.0674 15.5114 6.19697 14.6417C5.32655 13.7721 4.83534 12.5935 4.83051 11.3631C4.84878 10.1369 5.3443 8.9661 6.21184 8.09935C7.07937 7.23259 8.2506 6.73818 9.47681 6.72101C10.1024 6.72212 10.7209 6.85352 11.2928 7.1069L11.3975 6.15856C10.7836 5.92145 10.1312 5.79971 9.47315 5.79939C8.38171 5.8056 7.3166 6.13502 6.41227 6.74613C5.50794 7.35724 4.80496 8.22265 4.39209 9.233C3.97921 10.2433 3.87496 11.3533 4.09249 12.4229C4.31002 13.4924 4.83958 14.4736 5.61431 15.2424C6.38903 16.0112 7.37418 16.5332 8.44537 16.7426C9.51656 16.9519 10.6258 16.8391 11.6329 16.4185C12.6401 15.9979 13.5 15.2883 14.1042 14.3793C14.7083 13.4703 15.0296 12.4027 15.0275 11.3113C15.0161 10.1059 14.6038 8.93854 13.8555 7.99343" fill="#E1051D"/>
<path d="M0.684404 11.0578C0.677271 8.73901 1.58869 6.51175 3.21932 4.86316C4.84996 3.21457 7.0671 2.27886 9.38582 2.2606H9.46594V1.65155H9.38582C6.89495 1.65641 4.50776 2.64928 2.74812 4.41226C0.988473 6.17524 0.000133967 8.56431 0 11.0552L0.684404 11.0578Z" fill="#E1051D"/>
<path d="M12.8362 -1.90735e-05L11.7648 9.57012C11.3421 9.25284 10.8512 9.03875 10.331 8.94484C9.81091 8.85093 9.27604 8.8798 8.76907 9.02922C7.12168 9.50469 6.9803 10.763 6.97925 11.0583C6.97925 11.6197 7.39817 13.1283 9.40582 13.4493C11.8146 13.7703 12.443 12.2942 12.5419 11.7805C12.6697 11.2799 13.2646 5.76532 13.2646 5.76532L13.5856 2.74126C13.5856 2.74126 15.2863 2.67319 16.0891 3.47437C16.355 3.76486 16.5305 4.12658 16.5939 4.51527C16.6573 4.90396 16.606 5.30277 16.4462 5.66273C16.3289 6.00571 16.0535 6.334 16.3991 6.22613C16.8974 5.9057 17.2514 5.40388 17.3862 4.82695C17.4249 4.37944 17.3465 3.92956 17.1586 3.52155C16.9708 3.11353 16.68 2.76144 16.3148 2.49989C16.154 2.33965 14.7863 1.52484 14.5569 1.29548C14.2349 1.014 14.0312 0.621204 13.9867 0.195836L12.8362 -1.90735e-05Z" fill="#C40B1E"/>
</g>
<defs>
<clipPath id="clip0_846_1448">
<rect width="100" height="18.8512" fill="white"/>
</clipPath>
</defs>
</svg>
